M48
;DRILL file {KiCad 4.0.7-e2-6376~61~ubuntu18.04.1} date Fri Mar 15 16:23:39 2019
;FORMAT={-:-/ absolute / metric / decimal}
FMAT,2
METRIC,TZ
T1C0.400
T2C0.762
T3C0.800
T4C1.000
T5C1.100
%
G90
G05
M71
T1
X40.4Y-54.5
X41.Y-69.
X41.7Y-85.1
X42.Y-67.4
X42.4Y-83.4
X42.8Y-65.6
X43.Y-126.5
X44.Y-80.6
X46.8Y-81.1
X55.1Y-136.5
X55.6Y-47.4
X56.2Y-51.6
X56.3Y-54.6
X57.2Y-47.
X57.2Y-51.6
X57.2Y-69.8
X57.6Y-124.
X57.9Y-84.7
X58.18Y-66.212
X58.18Y-69.26
X58.688Y-50.972
X59.Y-58.2
X59.Y-59.4
X59.2Y-60.4
X59.2Y-61.4
X59.895Y-127.934
X59.895Y-129.712
X59.958Y-81.96
X59.958Y-84.754
X61.1Y-103.3
X65.5Y-126.
X66.181Y-128.251
X66.5Y-80.5
X66.7Y-88.6
X66.816Y-126.727
X67.3Y-67.4
X67.659Y-135.059
X68.8Y-66.2
X68.848Y-56.052
X70.9Y-117.6
X71.134Y-61.64
X72.15Y-61.64
X72.912Y-60.878
X73.Y-95.
X73.Y-98.
X73.6Y-121.
X76.468Y-63.608
X76.6Y-70.8
X76.7Y-59.2
X76.7Y-62.2
X76.8Y-66.6
X79.135Y-145.269
X79.262Y-150.794
X83.Y-76.
X89.Y-79.
X89.Y-81.
X94.756Y-136.761
X96.1Y-83.4
X99.8Y-83.2
X101.8Y-63.8
X102.2Y-99.
X102.6Y-101.2
X104.Y-80.
X104.2Y-98.8
X106.059Y-88.31
X106.059Y-90.85
X106.123Y-85.77
X106.123Y-93.39
X120.2Y-109.
X120.4Y-82.6
X121.Y-67.6
X121.Y-75.
X121.8Y-64.
X121.8Y-76.8
X122.4Y-66.
X123.4Y-84.
X126.4Y-90.8
X127.2Y-92.8
X127.2Y-94.8
X129.808Y-66.212
X130.5Y-61.2
X136.6Y-82.8
X137.6Y-78.6
T2
X83.58Y-45.13
X83.58Y-47.67
X83.58Y-50.21
X83.58Y-52.75
X83.58Y-55.29
X83.58Y-57.83
X83.58Y-60.37
X83.58Y-62.91
X96.28Y-45.13
X96.28Y-47.67
X96.28Y-50.21
X96.28Y-52.75
X96.28Y-55.29
X96.28Y-57.83
X96.28Y-60.37
X96.28Y-62.91
X105.17Y-45.13
X105.17Y-47.67
X105.17Y-50.21
X105.17Y-52.75
X105.17Y-55.29
X105.17Y-57.83
X105.17Y-60.37
X105.17Y-62.91
X117.87Y-45.13
X117.87Y-47.67
X117.87Y-50.21
X117.87Y-52.75
X117.87Y-55.29
X117.87Y-57.83
X117.87Y-60.37
X117.87Y-62.91
X126.76Y-45.13
X126.76Y-47.67
X126.76Y-50.21
X126.76Y-52.75
X126.76Y-55.29
X126.76Y-57.83
X126.76Y-60.37
X126.76Y-62.91
X139.46Y-45.13
X139.46Y-47.67
X139.46Y-50.21
X139.46Y-52.75
X139.46Y-55.29
X139.46Y-57.83
X139.46Y-60.37
X139.46Y-62.91
X148.35Y-45.13
X148.35Y-47.67
X148.35Y-50.21
X148.35Y-52.75
X148.35Y-55.29
X148.35Y-57.83
X148.35Y-60.37
X148.35Y-62.91
X161.05Y-45.13
X161.05Y-47.67
X161.05Y-50.21
X161.05Y-52.75
X161.05Y-55.29
X161.05Y-57.83
X161.05Y-60.37
X161.05Y-62.91
T3
X89.93Y-50.21
X89.93Y-52.71
X111.52Y-50.21
X111.52Y-52.71
X133.11Y-50.21
X133.11Y-52.71
X154.7Y-50.21
X154.7Y-52.71
T4
X33.796Y-145.714
X35.955Y-38.78
X35.955Y-41.28
X35.955Y-43.78
X35.955Y-46.28
X35.955Y-53.385
X35.955Y-55.885
X35.955Y-58.385
X35.955Y-60.885
X35.955Y-67.99
X35.955Y-70.49
X35.955Y-72.99
X35.955Y-75.49
X35.955Y-82.595
X35.955Y-85.095
X35.955Y-87.595
X35.955Y-90.095
X36.296Y-145.714
X38.796Y-145.714
X45.988Y-145.714
X48.488Y-145.714
X50.988Y-145.714
X51.83Y-38.78
X51.83Y-41.28
X51.83Y-43.78
X51.83Y-46.28
X51.83Y-53.385
X51.83Y-55.885
X51.83Y-58.385
X51.83Y-60.885
X51.83Y-67.99
X51.83Y-70.49
X51.83Y-72.99
X51.83Y-75.49
X51.83Y-82.595
X51.83Y-85.095
X51.83Y-87.595
X51.83Y-90.095
X58.18Y-145.714
X60.68Y-145.714
X63.18Y-145.714
X70.372Y-145.714
X72.872Y-145.714
X73.42Y-43.161
X73.42Y-45.701
X73.42Y-48.241
X73.42Y-50.782
X75.372Y-145.714
X75.96Y-43.161
X75.96Y-45.701
X75.96Y-48.241
X75.96Y-50.782
X78.246Y-87.04
X78.246Y-89.58
X78.246Y-92.12
X78.246Y-94.66
X78.246Y-99.74
X78.246Y-102.28
X78.246Y-104.82
X78.246Y-109.9
X78.246Y-112.44
X78.5Y-118.409
X78.5Y-120.949
X78.5Y-123.489
X78.5Y-126.029
X78.5Y-130.22
X78.5Y-132.76
X78.5Y-135.3
X82.564Y-84.5
X82.564Y-87.04
X82.564Y-89.58
X82.564Y-92.12
X82.564Y-94.66
X82.564Y-97.2
X82.564Y-99.74
X82.564Y-102.28
X82.564Y-104.82
X82.564Y-107.36
X82.564Y-109.9
X82.564Y-112.44
X82.564Y-114.98
X82.564Y-117.52
X82.564Y-120.06
X82.564Y-122.6
X82.564Y-125.14
X82.564Y-127.68
X82.564Y-130.22
X82.564Y-132.76
X82.564Y-135.3
X82.564Y-137.84
X82.564Y-140.38
X82.564Y-142.92
X86.24Y-40.05
X87.136Y-84.5
X87.136Y-87.04
X87.136Y-89.58
X87.136Y-92.12
X87.136Y-94.66
X87.136Y-97.2
X87.136Y-99.74
X87.136Y-102.28
X87.136Y-104.82
X87.136Y-107.36
X87.136Y-109.9
X87.136Y-112.44
X87.136Y-114.98
X87.136Y-117.52
X87.136Y-120.06
X87.136Y-122.6
X87.136Y-125.14
X87.136Y-127.68
X87.136Y-130.22
X87.136Y-132.76
X87.136Y-135.3
X87.136Y-137.84
X87.136Y-140.38
X87.136Y-142.92
X88.74Y-40.05
X89.46Y-158.
X90.692Y-67.736
X90.692Y-70.276
X91.24Y-40.05
X93.232Y-67.736
X93.232Y-70.276
X93.74Y-40.05
X94.54Y-158.
X94.756Y-77.388
X95.772Y-67.736
X95.772Y-70.276
X97.296Y-77.388
X99.836Y-77.388
X101.36Y-67.736
X101.36Y-70.276
X102.376Y-77.388
X104.916Y-77.388
X107.83Y-40.05
X110.33Y-40.05
X112.536Y-68.244
X112.536Y-70.784
X112.536Y-84.5
X112.536Y-87.04
X112.536Y-89.58
X112.536Y-92.12
X112.536Y-94.66
X112.536Y-97.2
X112.536Y-99.74
X112.536Y-102.28
X112.536Y-104.82
X112.536Y-107.36
X112.536Y-109.9
X112.536Y-112.44
X112.536Y-114.98
X112.536Y-117.52
X112.536Y-120.06
X112.536Y-122.6
X112.536Y-125.14
X112.536Y-127.68
X112.536Y-130.22
X112.536Y-132.76
X112.536Y-135.3
X112.536Y-137.84
X112.536Y-140.38
X112.536Y-142.92
X112.83Y-40.05
X115.076Y-68.244
X115.076Y-70.784
X115.33Y-40.05
X117.108Y-84.5
X117.108Y-87.04
X117.108Y-89.58
X117.108Y-92.12
X117.108Y-94.66
X117.108Y-97.2
X117.108Y-99.74
X117.108Y-102.28
X117.108Y-104.82
X117.108Y-107.36
X117.108Y-109.9
X117.108Y-112.44
X117.108Y-114.98
X117.108Y-117.52
X117.108Y-120.06
X117.108Y-122.6
X117.108Y-125.14
X117.108Y-127.68
X117.108Y-130.22
X117.108Y-132.76
X117.108Y-135.3
X117.108Y-137.84
X117.108Y-140.38
X117.108Y-142.92
X117.616Y-68.244
X117.616Y-70.784
X121.426Y-87.04
X121.426Y-89.58
X121.426Y-92.12
X121.426Y-94.66
X121.426Y-99.74
X121.426Y-102.28
X121.426Y-104.82
X121.426Y-120.06
X121.426Y-122.6
X121.426Y-125.14
X123.204Y-68.244
X123.204Y-70.784
X124.848Y-77.642
X127.348Y-77.642
X128.792Y-85.008
X128.792Y-87.548
X128.792Y-90.088
X128.792Y-95.676
X128.792Y-98.216
X128.792Y-100.756
X129.42Y-40.05
X129.427Y-112.44
X129.427Y-114.94
X129.427Y-117.44
X129.427Y-119.94
X129.848Y-77.642
X131.332Y-85.008
X131.332Y-87.548
X131.332Y-90.088
X131.332Y-95.676
X131.332Y-98.216
X131.332Y-100.756
X131.92Y-40.05
X132.348Y-77.642
X133.872Y-67.736
X133.872Y-70.276
X134.42Y-40.05
X136.412Y-67.736
X136.412Y-70.276
X136.92Y-40.05
X138.952Y-67.736
X138.952Y-70.276
X144.54Y-67.736
X144.54Y-70.276
X151.01Y-40.05
X153.51Y-40.05
X153.684Y-67.736
X153.684Y-70.276
X156.01Y-40.05
X156.224Y-67.736
X156.224Y-70.276
X158.51Y-40.05
X158.764Y-67.736
X158.764Y-70.276
X164.352Y-67.736
X164.352Y-70.276
T5
X92.216Y-84.5
X92.216Y-87.04
X92.216Y-89.58
X92.216Y-92.12
X92.216Y-94.66
X92.216Y-97.2
X92.216Y-99.74
X92.216Y-102.28
X92.216Y-104.82
X92.216Y-107.36
X92.216Y-109.9
X92.216Y-112.44
X92.216Y-114.98
X92.216Y-117.52
X92.216Y-120.06
X92.216Y-122.6
X92.216Y-125.14
X92.216Y-127.68
X92.216Y-130.22
X92.216Y-132.76
X92.216Y-135.3
X92.216Y-137.84
X92.216Y-140.38
X92.216Y-142.92
X94.756Y-97.2
X94.756Y-130.22
X94.756Y-132.76
X94.756Y-135.3
X94.756Y-140.38
X97.296Y-97.2
X99.836Y-97.2
X102.376Y-97.2
X104.456Y-126.41
X104.456Y-128.95
X104.456Y-131.49
X104.456Y-134.03
X104.456Y-136.57
X104.916Y-97.2
X107.456Y-84.5
X107.456Y-87.04
X107.456Y-89.58
X107.456Y-92.12
X107.456Y-94.66
X107.456Y-97.2
X107.456Y-99.74
X107.456Y-102.28
X107.456Y-104.82
X107.456Y-107.36
X107.456Y-109.9
X107.456Y-112.44
X107.456Y-114.98
X107.456Y-117.52
X107.456Y-120.06
X107.456Y-122.6
X107.456Y-125.14
X107.456Y-127.68
X107.456Y-130.22
X107.456Y-132.76
X107.456Y-135.3
X107.456Y-137.84
X107.456Y-140.38
X107.456Y-142.92
T0
M30
