G04 #@! TF.FileFunction,Copper,L4,Bot,Signal*
%FSLAX46Y46*%
G04 Gerber Fmt 4.6, Leading zero omitted, Abs format (unit mm)*
G04 Created by KiCad (PCBNEW 4.0.7-e2-6376~61~ubuntu18.04.1) date Fri Mar 15 16:23:44 2019*
%MOMM*%
%LPD*%
G01*
G04 APERTURE LIST*
%ADD10C,0.100000*%
%ADD11R,1.600000X1.600000*%
%ADD12C,1.600000*%
%ADD13R,1.700000X1.700000*%
%ADD14O,1.700000X1.700000*%
%ADD15C,1.524000*%
%ADD16R,1.750000X1.750000*%
%ADD17C,1.750000*%
%ADD18C,2.000000*%
%ADD19C,0.600000*%
%ADD20C,0.750000*%
%ADD21C,0.400000*%
%ADD22C,0.600000*%
%ADD23C,0.350000*%
%ADD24C,0.250000*%
%ADD25C,0.300000*%
G04 APERTURE END LIST*
D10*
D11*
X154700000Y-50210000D03*
D12*
X154700000Y-52710000D03*
D11*
X111520000Y-50210000D03*
D12*
X111520000Y-52710000D03*
D11*
X89930000Y-50210000D03*
D12*
X89930000Y-52710000D03*
D11*
X133110000Y-50210000D03*
D12*
X133110000Y-52710000D03*
D13*
X128792000Y-95676000D03*
D14*
X131332000Y-95676000D03*
X128792000Y-98216000D03*
X131332000Y-98216000D03*
X128792000Y-100756000D03*
X131332000Y-100756000D03*
D13*
X128792000Y-85008000D03*
D14*
X131332000Y-85008000D03*
X128792000Y-87548000D03*
X131332000Y-87548000D03*
X128792000Y-90088000D03*
X131332000Y-90088000D03*
D13*
X78246000Y-109900000D03*
D14*
X78246000Y-112440000D03*
D13*
X94756000Y-77388000D03*
D14*
X97296000Y-77388000D03*
X99836000Y-77388000D03*
X102376000Y-77388000D03*
X104916000Y-77388000D03*
D13*
X78246000Y-104820000D03*
D14*
X78246000Y-102280000D03*
X78246000Y-99740000D03*
D13*
X121426000Y-120060000D03*
D14*
X121426000Y-122600000D03*
X121426000Y-125140000D03*
D13*
X78500000Y-130220000D03*
D14*
X78500000Y-132760000D03*
X78500000Y-135300000D03*
D13*
X78500000Y-126029000D03*
D14*
X78500000Y-123489000D03*
X78500000Y-120949000D03*
X78500000Y-118409000D03*
D13*
X121426000Y-99740000D03*
D14*
X121426000Y-102280000D03*
X121426000Y-104820000D03*
D13*
X78246000Y-94660000D03*
D14*
X78246000Y-92120000D03*
X78246000Y-89580000D03*
X78246000Y-87040000D03*
D13*
X121426000Y-87040000D03*
D14*
X121426000Y-89580000D03*
X121426000Y-92120000D03*
X121426000Y-94660000D03*
D13*
X158764000Y-67736000D03*
D14*
X158764000Y-70276000D03*
X156224000Y-67736000D03*
X156224000Y-70276000D03*
X153684000Y-67736000D03*
X153684000Y-70276000D03*
D13*
X138952000Y-67736000D03*
D14*
X138952000Y-70276000D03*
X136412000Y-67736000D03*
X136412000Y-70276000D03*
X133872000Y-67736000D03*
X133872000Y-70276000D03*
D13*
X117616000Y-68244000D03*
D14*
X117616000Y-70784000D03*
X115076000Y-68244000D03*
X115076000Y-70784000D03*
X112536000Y-68244000D03*
X112536000Y-70784000D03*
D13*
X95772000Y-67736000D03*
D14*
X95772000Y-70276000D03*
X93232000Y-67736000D03*
X93232000Y-70276000D03*
X90692000Y-67736000D03*
X90692000Y-70276000D03*
D13*
X164352000Y-67736000D03*
D14*
X164352000Y-70276000D03*
D13*
X144540000Y-67736000D03*
D14*
X144540000Y-70276000D03*
D13*
X123204000Y-68244000D03*
D14*
X123204000Y-70784000D03*
D13*
X101360000Y-67736000D03*
D14*
X101360000Y-70276000D03*
D12*
X107456000Y-102280000D03*
X107456000Y-99740000D03*
X107456000Y-97200000D03*
X107456000Y-94660000D03*
X107456000Y-104820000D03*
X107456000Y-107360000D03*
X107456000Y-109900000D03*
X107456000Y-92120000D03*
X107456000Y-89580000D03*
X107456000Y-87040000D03*
X107456000Y-84500000D03*
X104916000Y-97200000D03*
X102376000Y-97200000D03*
X99836000Y-97200000D03*
X97296000Y-97200000D03*
X94756000Y-97200000D03*
X92216000Y-84500000D03*
X92216000Y-87040000D03*
X92216000Y-89580000D03*
X92216000Y-92120000D03*
X92216000Y-94660000D03*
X92216000Y-97200000D03*
X92216000Y-99740000D03*
X92216000Y-102280000D03*
X107456000Y-112440000D03*
X107456000Y-114980000D03*
X107456000Y-117520000D03*
X107456000Y-120060000D03*
X107456000Y-122600000D03*
X107456000Y-125140000D03*
X107456000Y-127680000D03*
X107456000Y-130220000D03*
X107456000Y-132760000D03*
X107456000Y-135300000D03*
X107456000Y-137840000D03*
X107456000Y-140380000D03*
D11*
X107456000Y-142920000D03*
D12*
X92216000Y-104820000D03*
X92216000Y-107360000D03*
X92216000Y-109900000D03*
X92216000Y-112440000D03*
X92216000Y-114980000D03*
X92216000Y-117520000D03*
X92216000Y-120060000D03*
X92216000Y-122600000D03*
X92216000Y-125140000D03*
X92216000Y-127680000D03*
X92216000Y-130220000D03*
X92216000Y-132760000D03*
X92216000Y-135300000D03*
X92216000Y-137840000D03*
X92216000Y-140380000D03*
X92216000Y-142920000D03*
X94756000Y-140380000D03*
X94756000Y-135300000D03*
X94756000Y-132760000D03*
X94756000Y-130220000D03*
X104456000Y-136570000D03*
X104456000Y-134030000D03*
X104456000Y-131490000D03*
X104456000Y-128950000D03*
X104456000Y-126410000D03*
D15*
X161050000Y-62910000D03*
X148350000Y-45130000D03*
X161050000Y-60370000D03*
X161050000Y-57830000D03*
X161050000Y-55290000D03*
X161050000Y-52750000D03*
X161050000Y-50210000D03*
X161050000Y-47670000D03*
X161050000Y-45130000D03*
X148350000Y-47670000D03*
X148350000Y-50210000D03*
X148350000Y-52750000D03*
X148350000Y-55290000D03*
X148350000Y-57830000D03*
X148350000Y-60370000D03*
X148350000Y-62910000D03*
X139460000Y-62910000D03*
X126760000Y-45130000D03*
X139460000Y-60370000D03*
X139460000Y-57830000D03*
X139460000Y-55290000D03*
X139460000Y-52750000D03*
X139460000Y-50210000D03*
X139460000Y-47670000D03*
X139460000Y-45130000D03*
X126760000Y-47670000D03*
X126760000Y-50210000D03*
X126760000Y-52750000D03*
X126760000Y-55290000D03*
X126760000Y-57830000D03*
X126760000Y-60370000D03*
X126760000Y-62910000D03*
X117870000Y-62910000D03*
X105170000Y-45130000D03*
X117870000Y-60370000D03*
X117870000Y-57830000D03*
X117870000Y-55290000D03*
X117870000Y-52750000D03*
X117870000Y-50210000D03*
X117870000Y-47670000D03*
X117870000Y-45130000D03*
X105170000Y-47670000D03*
X105170000Y-50210000D03*
X105170000Y-52750000D03*
X105170000Y-55290000D03*
X105170000Y-57830000D03*
X105170000Y-60370000D03*
X105170000Y-62910000D03*
X96280000Y-62910000D03*
X83580000Y-45130000D03*
X96280000Y-60370000D03*
X96280000Y-57830000D03*
X96280000Y-55290000D03*
X96280000Y-52750000D03*
X96280000Y-50210000D03*
X96280000Y-47670000D03*
X96280000Y-45130000D03*
X83580000Y-47670000D03*
X83580000Y-50210000D03*
X83580000Y-52750000D03*
X83580000Y-55290000D03*
X83580000Y-57830000D03*
X83580000Y-60370000D03*
X83580000Y-62910000D03*
D13*
X87136000Y-142920000D03*
D14*
X87136000Y-140380000D03*
X87136000Y-137840000D03*
X87136000Y-135300000D03*
X87136000Y-132760000D03*
X87136000Y-130220000D03*
X87136000Y-127680000D03*
X87136000Y-125140000D03*
X87136000Y-122600000D03*
X87136000Y-120060000D03*
X87136000Y-117520000D03*
X87136000Y-114980000D03*
X87136000Y-112440000D03*
X87136000Y-109900000D03*
X87136000Y-107360000D03*
X87136000Y-104820000D03*
X87136000Y-102280000D03*
X87136000Y-99740000D03*
X87136000Y-97200000D03*
X87136000Y-94660000D03*
X87136000Y-92120000D03*
X87136000Y-89580000D03*
X87136000Y-87040000D03*
X87136000Y-84500000D03*
D13*
X82564000Y-142920000D03*
D14*
X82564000Y-140380000D03*
X82564000Y-137840000D03*
X82564000Y-135300000D03*
X82564000Y-132760000D03*
X82564000Y-130220000D03*
X82564000Y-127680000D03*
X82564000Y-125140000D03*
X82564000Y-122600000D03*
X82564000Y-120060000D03*
X82564000Y-117520000D03*
X82564000Y-114980000D03*
X82564000Y-112440000D03*
X82564000Y-109900000D03*
X82564000Y-107360000D03*
X82564000Y-104820000D03*
X82564000Y-102280000D03*
X82564000Y-99740000D03*
X82564000Y-97200000D03*
X82564000Y-94660000D03*
X82564000Y-92120000D03*
X82564000Y-89580000D03*
X82564000Y-87040000D03*
X82564000Y-84500000D03*
D13*
X117108000Y-84500000D03*
D14*
X117108000Y-87040000D03*
X117108000Y-89580000D03*
X117108000Y-92120000D03*
X117108000Y-94660000D03*
X117108000Y-97200000D03*
X117108000Y-99740000D03*
X117108000Y-102280000D03*
X117108000Y-104820000D03*
X117108000Y-107360000D03*
X117108000Y-109900000D03*
X117108000Y-112440000D03*
X117108000Y-114980000D03*
X117108000Y-117520000D03*
X117108000Y-120060000D03*
X117108000Y-122600000D03*
X117108000Y-125140000D03*
X117108000Y-127680000D03*
X117108000Y-130220000D03*
X117108000Y-132760000D03*
X117108000Y-135300000D03*
X117108000Y-137840000D03*
X117108000Y-140380000D03*
X117108000Y-142920000D03*
D13*
X112536000Y-84500000D03*
D14*
X112536000Y-87040000D03*
X112536000Y-89580000D03*
X112536000Y-92120000D03*
X112536000Y-94660000D03*
X112536000Y-97200000D03*
X112536000Y-99740000D03*
X112536000Y-102280000D03*
X112536000Y-104820000D03*
X112536000Y-107360000D03*
X112536000Y-109900000D03*
X112536000Y-112440000D03*
X112536000Y-114980000D03*
X112536000Y-117520000D03*
X112536000Y-120060000D03*
X112536000Y-122600000D03*
X112536000Y-125140000D03*
X112536000Y-127680000D03*
X112536000Y-130220000D03*
X112536000Y-132760000D03*
X112536000Y-135300000D03*
X112536000Y-137840000D03*
X112536000Y-140380000D03*
X112536000Y-142920000D03*
D16*
X33796000Y-145714000D03*
D17*
X36296000Y-145714000D03*
X38796000Y-145714000D03*
D16*
X45988000Y-145714000D03*
D17*
X48488000Y-145714000D03*
X50988000Y-145714000D03*
D16*
X58180000Y-145714000D03*
D17*
X60680000Y-145714000D03*
X63180000Y-145714000D03*
D16*
X132348000Y-77642000D03*
D17*
X129848000Y-77642000D03*
X127348000Y-77642000D03*
X124848000Y-77642000D03*
D16*
X70372000Y-145714000D03*
D17*
X72872000Y-145714000D03*
X75372000Y-145714000D03*
D16*
X35955000Y-38780000D03*
D17*
X35955000Y-41280000D03*
X35955000Y-43780000D03*
X35955000Y-46280000D03*
D16*
X35955000Y-53385000D03*
D17*
X35955000Y-55885000D03*
X35955000Y-58385000D03*
X35955000Y-60885000D03*
D16*
X35955000Y-67990000D03*
D17*
X35955000Y-70490000D03*
X35955000Y-72990000D03*
X35955000Y-75490000D03*
D16*
X35955000Y-82595000D03*
D17*
X35955000Y-85095000D03*
X35955000Y-87595000D03*
X35955000Y-90095000D03*
D16*
X51830000Y-82595000D03*
D17*
X51830000Y-85095000D03*
X51830000Y-87595000D03*
X51830000Y-90095000D03*
D16*
X51830000Y-67990000D03*
D17*
X51830000Y-70490000D03*
X51830000Y-72990000D03*
X51830000Y-75490000D03*
D16*
X51830000Y-53385000D03*
D17*
X51830000Y-55885000D03*
X51830000Y-58385000D03*
X51830000Y-60885000D03*
D16*
X51830000Y-38780000D03*
D17*
X51830000Y-41280000D03*
X51830000Y-43780000D03*
X51830000Y-46280000D03*
D16*
X129427000Y-112440000D03*
D17*
X129427000Y-114940000D03*
X129427000Y-117440000D03*
X129427000Y-119940000D03*
D13*
X73420000Y-43161500D03*
D14*
X75960000Y-43161500D03*
X73420000Y-45701500D03*
X75960000Y-45701500D03*
X73420000Y-48241500D03*
X75960000Y-48241500D03*
X73420000Y-50781500D03*
X75960000Y-50781500D03*
D16*
X158510000Y-40050000D03*
D17*
X156010000Y-40050000D03*
X153510000Y-40050000D03*
X151010000Y-40050000D03*
D16*
X136920000Y-40050000D03*
D17*
X134420000Y-40050000D03*
X131920000Y-40050000D03*
X129420000Y-40050000D03*
D16*
X115330000Y-40050000D03*
D17*
X112830000Y-40050000D03*
X110330000Y-40050000D03*
X107830000Y-40050000D03*
D16*
X93740000Y-40050000D03*
D17*
X91240000Y-40050000D03*
X88740000Y-40050000D03*
X86240000Y-40050000D03*
D18*
X89460000Y-158000000D03*
X94540000Y-158000000D03*
D19*
X83000000Y-76000000D03*
X57600000Y-124000000D03*
X65500000Y-126000000D03*
X99800000Y-83200000D03*
X43000000Y-126500000D03*
X76700000Y-59200000D03*
X68800000Y-66200000D03*
X66500000Y-80500000D03*
X66700000Y-88600000D03*
X61100000Y-103300000D03*
X67659500Y-135059500D03*
X96100000Y-83400000D03*
X41000000Y-69000000D03*
X46800000Y-81100000D03*
X41700000Y-85100000D03*
X76800000Y-66600000D03*
X76700000Y-62200000D03*
X40400000Y-54500000D03*
X56300000Y-54600000D03*
X67300000Y-67400000D03*
X57200000Y-69800000D03*
X57900000Y-84700000D03*
X55100000Y-136500000D03*
X58688000Y-50972000D03*
X68848000Y-56052000D03*
X59000000Y-58200000D03*
X42000000Y-67400000D03*
X59000000Y-59400000D03*
X42800000Y-65600000D03*
X59200000Y-60400000D03*
X44000000Y-80600000D03*
X42400000Y-83400000D03*
X59200000Y-61400000D03*
X57200000Y-47000000D03*
X57200000Y-51600000D03*
X55600000Y-47400000D03*
X56200000Y-51600000D03*
X58180000Y-69260000D03*
X58180000Y-66212000D03*
X59958000Y-84754000D03*
X59958000Y-81960000D03*
X130500000Y-61200000D03*
X73600000Y-121000000D03*
X70900000Y-117600000D03*
X79262000Y-150794000D03*
X79135000Y-145269500D03*
X66816000Y-126727500D03*
X66181000Y-128251500D03*
X59894500Y-129712000D03*
X59894500Y-127934000D03*
X76600000Y-70800000D03*
X106059000Y-88310000D03*
X106122500Y-85770000D03*
X106059000Y-90850000D03*
X71134000Y-61640000D03*
X72150000Y-61640000D03*
X72912000Y-60878000D03*
X73000000Y-98000000D03*
X73000000Y-95000000D03*
X89000000Y-81000000D03*
X89000000Y-79000000D03*
X76468000Y-63608500D03*
X101800000Y-63800000D03*
X104200000Y-98800000D03*
X104000000Y-80000000D03*
X127200000Y-94800000D03*
X127200000Y-92800000D03*
X121800000Y-64000000D03*
X122400000Y-66000000D03*
X121000000Y-67600000D03*
X121000000Y-75000000D03*
X121800000Y-76800000D03*
X120400000Y-82600000D03*
X123400000Y-84000000D03*
X137600000Y-78600000D03*
X136600000Y-82800000D03*
X126400000Y-90800000D03*
X120200000Y-109000000D03*
X94756000Y-136760500D03*
X102200000Y-99000000D03*
X102600000Y-101200000D03*
X106122500Y-93390000D03*
X129808000Y-66212000D03*
D20*
X67700000Y-135000000D02*
X67700000Y-135019000D01*
X67700000Y-135019000D02*
X67659500Y-135059500D01*
D21*
X87136000Y-107360000D02*
X82564000Y-107360000D01*
D22*
X92216000Y-140380000D02*
X82564000Y-140380000D01*
X92216000Y-107360000D02*
X82564000Y-107360000D01*
D21*
X87136000Y-137840000D02*
X92216000Y-137840000D01*
D22*
X92216000Y-137840000D02*
X82564000Y-137840000D01*
X102376000Y-97200000D02*
X102376000Y-79928000D01*
X102376000Y-79928000D02*
X99836000Y-77388000D01*
D23*
X82564000Y-120060000D02*
X79660000Y-120060000D01*
X39410000Y-140100000D02*
X33796000Y-145714000D01*
X66700000Y-140100000D02*
X39410000Y-140100000D01*
X72300000Y-134500000D02*
X66700000Y-140100000D01*
X72300000Y-124800000D02*
X72300000Y-134500000D01*
X77400000Y-119700000D02*
X72300000Y-124800000D01*
X79300000Y-119700000D02*
X77400000Y-119700000D01*
X79660000Y-120060000D02*
X79300000Y-119700000D01*
X82204000Y-119700000D02*
X82564000Y-120060000D01*
D21*
X87136000Y-120060000D02*
X92216000Y-120060000D01*
D22*
X92216000Y-120060000D02*
X82564000Y-120060000D01*
D23*
X76595000Y-122600000D02*
X76600000Y-122600000D01*
X77000000Y-122200000D02*
X82164000Y-122200000D01*
X76600000Y-122600000D02*
X77000000Y-122200000D01*
X82164000Y-122200000D02*
X82564000Y-122600000D01*
D21*
X92216000Y-122600000D02*
X87136000Y-122600000D01*
D23*
X67451000Y-140824500D02*
X67324000Y-140951500D01*
X45988000Y-141840500D02*
X46877000Y-140951500D01*
X46877000Y-140951500D02*
X67324000Y-140951500D01*
X67324000Y-140951500D02*
X67451000Y-140824500D01*
X45988000Y-145714000D02*
X45988000Y-141840500D01*
X73737500Y-125457500D02*
X76595000Y-122600000D01*
X73737500Y-134157000D02*
X73737500Y-125457500D01*
X67324000Y-140951500D02*
X73737500Y-134157000D01*
D22*
X92216000Y-122600000D02*
X82564000Y-122600000D01*
D23*
X82564000Y-125140000D02*
X80140000Y-125140000D01*
X61894000Y-142000000D02*
X58180000Y-145714000D01*
X68200000Y-142000000D02*
X61894000Y-142000000D01*
X74600000Y-135600000D02*
X68200000Y-142000000D01*
X74600000Y-125800000D02*
X74600000Y-135600000D01*
X75600000Y-124800000D02*
X74600000Y-125800000D01*
X79800000Y-124800000D02*
X75600000Y-124800000D01*
X80140000Y-125140000D02*
X79800000Y-124800000D01*
D21*
X87136000Y-125140000D02*
X82564000Y-125140000D01*
D22*
X92216000Y-125140000D02*
X82564000Y-125140000D01*
X82564000Y-142920000D02*
X87136000Y-142920000D01*
X92216000Y-142920000D02*
X82564000Y-142920000D01*
D23*
X63768000Y-50972000D02*
X58688000Y-50972000D01*
X68848000Y-56052000D02*
X63768000Y-50972000D01*
X45800000Y-62400000D02*
X45000000Y-62400000D01*
X57800000Y-59400000D02*
X54800000Y-62400000D01*
X58800000Y-58400000D02*
X57800000Y-59400000D01*
X59000000Y-58200000D02*
X58800000Y-58400000D01*
X54800000Y-62400000D02*
X45800000Y-62400000D01*
X42000000Y-65400000D02*
X42000000Y-67400000D01*
X45000000Y-62400000D02*
X42000000Y-65400000D01*
X59000000Y-59400000D02*
X55200000Y-63200000D01*
X55200000Y-63200000D02*
X46000000Y-63200000D01*
X45200000Y-63200000D02*
X42800000Y-65600000D01*
X46000000Y-63200000D02*
X45200000Y-63200000D01*
X45800000Y-63800000D02*
X45600000Y-63800000D01*
X59200000Y-60400000D02*
X55800000Y-63800000D01*
X55800000Y-63800000D02*
X45800000Y-63800000D01*
X44000000Y-65400000D02*
X44000000Y-80600000D01*
X45600000Y-63800000D02*
X44000000Y-65400000D01*
X45800000Y-64600000D02*
X45600000Y-64600000D01*
X45600000Y-64600000D02*
X44800000Y-65400000D01*
X44800000Y-81000000D02*
X42400000Y-83400000D01*
X44800000Y-65400000D02*
X44800000Y-81000000D01*
X56000000Y-64600000D02*
X45800000Y-64600000D01*
X59200000Y-61400000D02*
X56000000Y-64600000D01*
X57200000Y-51600000D02*
X57200000Y-47000000D01*
X55600000Y-51000000D02*
X55600000Y-47400000D01*
X56200000Y-51600000D02*
X55600000Y-51000000D01*
X58180000Y-66212000D02*
X58180000Y-69260000D01*
X59958000Y-84246000D02*
X59958000Y-84754000D01*
X59958000Y-81960000D02*
X59958000Y-84246000D01*
D22*
X94756000Y-77388000D02*
X94756000Y-97200000D01*
X97296000Y-77388000D02*
X97296000Y-97200000D01*
D20*
X117108000Y-84500000D02*
X112536000Y-84500000D01*
X112536000Y-84500000D02*
X107456000Y-84500000D01*
D24*
X131332000Y-95676000D02*
X131776500Y-95676000D01*
D21*
X131776500Y-95676000D02*
X134316500Y-93136000D01*
X134316500Y-93136000D02*
X134316500Y-83420500D01*
X134316500Y-83420500D02*
X131522500Y-80626500D01*
X131522500Y-80626500D02*
X120981500Y-80626500D01*
X120981500Y-80626500D02*
X117108000Y-84500000D01*
D20*
X128790000Y-62910000D02*
X126760000Y-62910000D01*
X130500000Y-61200000D02*
X128790000Y-62910000D01*
D22*
X73600000Y-120300000D02*
X73600000Y-121000000D01*
X70900000Y-117600000D02*
X73600000Y-120300000D01*
D20*
X79262000Y-145396500D02*
X79262000Y-150794000D01*
X79135000Y-145269500D02*
X79262000Y-145396500D01*
X126760000Y-62910000D02*
X126760000Y-63989500D01*
X126760000Y-63989500D02*
X125680500Y-65069000D01*
X105170000Y-62910000D02*
X105170000Y-63227500D01*
X105170000Y-63227500D02*
X103328500Y-65069000D01*
X103011000Y-65069000D02*
X103328500Y-65069000D01*
X103328500Y-65069000D02*
X125680500Y-65069000D01*
X125680500Y-65069000D02*
X146191000Y-65069000D01*
X146191000Y-65069000D02*
X148350000Y-62910000D01*
X83580000Y-62910000D02*
X89295000Y-62910000D01*
X91454000Y-65069000D02*
X103011000Y-65069000D01*
X89295000Y-62910000D02*
X91454000Y-65069000D01*
D25*
X66816000Y-127616500D02*
X66816000Y-126727500D01*
X66181000Y-128251500D02*
X66816000Y-127616500D01*
X59894500Y-127934000D02*
X59894500Y-129712000D01*
D21*
X82564000Y-97200000D02*
X77400000Y-97200000D01*
X76200000Y-71200000D02*
X76600000Y-70800000D01*
X76200000Y-96000000D02*
X76200000Y-71200000D01*
X77400000Y-97200000D02*
X76200000Y-96000000D01*
X92216000Y-97200000D02*
X87136000Y-97200000D01*
D22*
X92216000Y-97200000D02*
X82564000Y-97200000D01*
D21*
X128792000Y-95676000D02*
X126061500Y-95676000D01*
X124156500Y-130791500D02*
X117108000Y-137840000D01*
X124156500Y-97581000D02*
X124156500Y-130791500D01*
X126061500Y-95676000D02*
X124156500Y-97581000D01*
D24*
X128792000Y-100756000D02*
X128220500Y-100756000D01*
D21*
X128220500Y-100756000D02*
X124855000Y-104121500D01*
X124855000Y-104121500D02*
X124855000Y-132633000D01*
X124855000Y-132633000D02*
X117108000Y-140380000D01*
X128792000Y-85008000D02*
X125998000Y-85008000D01*
X125998000Y-85008000D02*
X121426000Y-89580000D01*
D25*
X121426000Y-89580000D02*
X119203500Y-89580000D01*
D23*
X117933500Y-88310000D02*
X106059000Y-88310000D01*
D25*
X119203500Y-89580000D02*
X117933500Y-88310000D01*
D24*
X131332000Y-85008000D02*
X131332000Y-84309500D01*
D21*
X131332000Y-84309500D02*
X130570000Y-83547500D01*
X130570000Y-83547500D02*
X124918500Y-83547500D01*
X124918500Y-83547500D02*
X121426000Y-87040000D01*
D23*
X121426000Y-87040000D02*
X119457500Y-87040000D01*
X118187500Y-85770000D02*
X106122500Y-85770000D01*
X119457500Y-87040000D02*
X118187500Y-85770000D01*
D21*
X128792000Y-90088000D02*
X123458000Y-90088000D01*
X123458000Y-90088000D02*
X121426000Y-92120000D01*
X121426000Y-92120000D02*
X119203500Y-92120000D01*
X117933500Y-90850000D02*
X106059000Y-90850000D01*
X119203500Y-92120000D02*
X117933500Y-90850000D01*
X87136000Y-102280000D02*
X82564000Y-102280000D01*
X78246000Y-109900000D02*
X78246000Y-108122000D01*
X80468500Y-104375500D02*
X82564000Y-102280000D01*
X80468500Y-105899500D02*
X80468500Y-104375500D01*
X78246000Y-108122000D02*
X80468500Y-105899500D01*
D24*
X78246000Y-109900000D02*
X78246000Y-109709500D01*
D22*
X92216000Y-102280000D02*
X82564000Y-102280000D01*
D21*
X87136000Y-104820000D02*
X92216000Y-104820000D01*
X78246000Y-112440000D02*
X79770000Y-112440000D01*
X80722500Y-106661500D02*
X82564000Y-104820000D01*
X80722500Y-111487500D02*
X80722500Y-106661500D01*
X79770000Y-112440000D02*
X80722500Y-111487500D01*
D22*
X92216000Y-104820000D02*
X82564000Y-104820000D01*
D21*
X92216000Y-135300000D02*
X87136000Y-135300000D01*
D22*
X92216000Y-135300000D02*
X82564000Y-135300000D01*
D21*
X82564000Y-132760000D02*
X87136000Y-132760000D01*
D22*
X92216000Y-132760000D02*
X82564000Y-132760000D01*
D21*
X87136000Y-130220000D02*
X82564000Y-130220000D01*
D22*
X92216000Y-130220000D02*
X82564000Y-130220000D01*
D21*
X82564000Y-127680000D02*
X87136000Y-127680000D01*
D23*
X70372000Y-145714000D02*
X70372000Y-141015000D01*
X76595000Y-127680000D02*
X82564000Y-127680000D01*
X76023500Y-128251500D02*
X76595000Y-127680000D01*
X76023500Y-135363500D02*
X76023500Y-128251500D01*
X70372000Y-141015000D02*
X76023500Y-135363500D01*
D22*
X92216000Y-127680000D02*
X82564000Y-127680000D01*
D21*
X87136000Y-117520000D02*
X92216000Y-117520000D01*
X82564000Y-117520000D02*
X80520000Y-117520000D01*
D23*
X71134000Y-61640000D02*
X71388000Y-61894000D01*
D21*
X71388000Y-61894000D02*
X71388000Y-67736000D01*
X71388000Y-72588000D02*
X71388000Y-67736000D01*
X73800000Y-75000000D02*
X71388000Y-72588000D01*
X73800000Y-113200000D02*
X73800000Y-75000000D01*
X77200000Y-116600000D02*
X73800000Y-113200000D01*
X79600000Y-116600000D02*
X77200000Y-116600000D01*
X80520000Y-117520000D02*
X79600000Y-116600000D01*
D22*
X92216000Y-117520000D02*
X82564000Y-117520000D01*
D21*
X92216000Y-114980000D02*
X87136000Y-114980000D01*
X82564000Y-114980000D02*
X76580000Y-114980000D01*
X72150000Y-61640000D02*
X72150000Y-67736000D01*
X72150000Y-72361998D02*
X72150000Y-67736000D01*
X74600000Y-74811998D02*
X72150000Y-72361998D01*
X74600000Y-113000000D02*
X74600000Y-74811998D01*
X76580000Y-114980000D02*
X74600000Y-113000000D01*
D22*
X92216000Y-114980000D02*
X82564000Y-114980000D01*
D21*
X87136000Y-112440000D02*
X92216000Y-112440000D01*
X72912000Y-67736000D02*
X72912000Y-72112000D01*
X72912000Y-60878000D02*
X72912000Y-67736000D01*
X80804000Y-114200000D02*
X82564000Y-112440000D01*
X76800000Y-114200000D02*
X80804000Y-114200000D01*
X75400000Y-112800000D02*
X76800000Y-114200000D01*
X75400000Y-74600000D02*
X75400000Y-112800000D01*
X72912000Y-72112000D02*
X75400000Y-74600000D01*
D22*
X92216000Y-112440000D02*
X82564000Y-112440000D01*
D21*
X82564000Y-109900000D02*
X87136000Y-109900000D01*
D22*
X92216000Y-109900000D02*
X82564000Y-109900000D01*
D20*
X73000000Y-95000000D02*
X73000000Y-98000000D01*
X89000000Y-79000000D02*
X89000000Y-81000000D01*
D21*
X87136000Y-99740000D02*
X92216000Y-99740000D01*
D22*
X92216000Y-99740000D02*
X82564000Y-99740000D01*
D21*
X82564000Y-94660000D02*
X81060000Y-94660000D01*
X79600000Y-70800000D02*
X79600000Y-63608500D01*
X80400000Y-71600000D02*
X79600000Y-70800000D01*
X80400000Y-94000000D02*
X80400000Y-71600000D01*
X81060000Y-94660000D02*
X80400000Y-94000000D01*
X92216000Y-94660000D02*
X87136000Y-94660000D01*
D24*
X75960000Y-43161500D02*
X75896500Y-43161500D01*
D22*
X75896500Y-43161500D02*
X73928000Y-41193000D01*
X73928000Y-41193000D02*
X72785000Y-41193000D01*
X72785000Y-41193000D02*
X71388000Y-42590000D01*
X71388000Y-42590000D02*
X71388000Y-48749500D01*
X71388000Y-48749500D02*
X73420000Y-50781500D01*
X73420000Y-50781500D02*
X73420000Y-55163000D01*
X73420000Y-55163000D02*
X75769500Y-57512500D01*
D21*
X75769500Y-57512500D02*
X79643000Y-57512500D01*
X79643000Y-57512500D02*
X80341500Y-58211000D01*
X80341500Y-58211000D02*
X80341500Y-63481500D01*
X80341500Y-63481500D02*
X80214500Y-63608500D01*
X80214500Y-63608500D02*
X79600000Y-63608500D01*
X79600000Y-63608500D02*
X76468000Y-63608500D01*
D22*
X92216000Y-94660000D02*
X82564000Y-94660000D01*
X82564000Y-92120000D02*
X87136000Y-92120000D01*
X82564000Y-92120000D02*
X92216000Y-92120000D01*
X87136000Y-89580000D02*
X82564000Y-89580000D01*
X92216000Y-89580000D02*
X82564000Y-89580000D01*
X92216000Y-87040000D02*
X87136000Y-87040000D01*
X92216000Y-87040000D02*
X82564000Y-87040000D01*
X92216000Y-84500000D02*
X87136000Y-84500000D01*
X82564000Y-84500000D02*
X92216000Y-84500000D01*
D21*
X100530000Y-45130000D02*
X101800000Y-46400000D01*
X101800000Y-46400000D02*
X101800000Y-63800000D01*
X96280000Y-45130000D02*
X100530000Y-45130000D01*
X103600000Y-98200000D02*
X104200000Y-98800000D01*
X103600000Y-80400000D02*
X103600000Y-98200000D01*
X104000000Y-80000000D02*
X103600000Y-80400000D01*
X127200000Y-92800000D02*
X127200000Y-94800000D01*
X120400000Y-82600000D02*
X122000000Y-82600000D01*
X119730000Y-45130000D02*
X120400000Y-45800000D01*
X120400000Y-45800000D02*
X120400000Y-62600000D01*
X120400000Y-62600000D02*
X121800000Y-64000000D01*
X122400000Y-66000000D02*
X121000000Y-67400000D01*
X121000000Y-67400000D02*
X121000000Y-67600000D01*
X121000000Y-75000000D02*
X121800000Y-75800000D01*
X121800000Y-75800000D02*
X121800000Y-76800000D01*
X117870000Y-45130000D02*
X119730000Y-45130000D01*
X122000000Y-82600000D02*
X123400000Y-84000000D01*
X117108000Y-102280000D02*
X118320000Y-102280000D01*
X137600000Y-81800000D02*
X137600000Y-78600000D01*
X136600000Y-82800000D02*
X137600000Y-81800000D01*
X126400000Y-93000000D02*
X126400000Y-90800000D01*
X123000000Y-96400000D02*
X126400000Y-93000000D01*
X120800000Y-96400000D02*
X123000000Y-96400000D01*
X119200000Y-98000000D02*
X120800000Y-96400000D01*
X119200000Y-101400000D02*
X119200000Y-98000000D01*
X118320000Y-102280000D02*
X119200000Y-101400000D01*
X118620000Y-104820000D02*
X117108000Y-104820000D01*
X119200000Y-105400000D02*
X118620000Y-104820000D01*
X119200000Y-108000000D02*
X119200000Y-105400000D01*
X120200000Y-109000000D02*
X119200000Y-108000000D01*
D22*
X104916000Y-77388000D02*
X104916000Y-97200000D01*
D21*
X78500000Y-130220000D02*
X80087500Y-130220000D01*
X93486000Y-131490000D02*
X94756000Y-130220000D01*
X81357500Y-131490000D02*
X93486000Y-131490000D01*
X80087500Y-130220000D02*
X81357500Y-131490000D01*
D24*
X78500000Y-132760000D02*
X80278000Y-132760000D01*
D21*
X93486000Y-134030000D02*
X94756000Y-132760000D01*
X81548000Y-134030000D02*
X93486000Y-134030000D01*
D24*
X80278000Y-132760000D02*
X81548000Y-134030000D01*
X79770000Y-136570000D02*
X78500000Y-135300000D01*
D21*
X94565500Y-136570000D02*
X79770000Y-136570000D01*
D24*
X94756000Y-136760500D02*
X94565500Y-136570000D01*
D23*
X102200000Y-99000000D02*
X102600000Y-99400000D01*
X102600000Y-99400000D02*
X102600000Y-101200000D01*
X121426000Y-94660000D02*
X120283000Y-94660000D01*
X119013000Y-93390000D02*
X106122500Y-93390000D01*
X120283000Y-94660000D02*
X119013000Y-93390000D01*
D22*
X132348000Y-77642000D02*
X140095000Y-77642000D01*
X146000500Y-50019500D02*
X148350000Y-47670000D01*
X146000500Y-58211000D02*
X146000500Y-50019500D01*
X146889500Y-59100000D02*
X146000500Y-58211000D01*
X149239000Y-59100000D02*
X146889500Y-59100000D01*
X150445500Y-60306500D02*
X149239000Y-59100000D01*
X150445500Y-67291500D02*
X150445500Y-60306500D01*
X140095000Y-77642000D02*
X150445500Y-67291500D01*
X129848000Y-77642000D02*
X129848000Y-66252000D01*
D23*
X129848000Y-66252000D02*
X129808000Y-66212000D01*
D21*
X124848000Y-77642000D02*
X112091500Y-77642000D01*
X81738500Y-49511500D02*
X83580000Y-47670000D01*
X81738500Y-67101000D02*
X81738500Y-49511500D01*
X87771000Y-73133500D02*
X81738500Y-67101000D01*
X107583000Y-73133500D02*
X87771000Y-73133500D01*
X112091500Y-77642000D02*
X107583000Y-73133500D01*
D20*
X158510000Y-40050000D02*
X158510000Y-44710000D01*
X158510000Y-44710000D02*
X158510000Y-55163000D01*
X155843000Y-57830000D02*
X148350000Y-57830000D01*
X158510000Y-55163000D02*
X155843000Y-57830000D01*
X156010000Y-40050000D02*
X156010000Y-47964000D01*
X155906500Y-55290000D02*
X148350000Y-55290000D01*
X157176500Y-54020000D02*
X155906500Y-55290000D01*
X157176500Y-49130500D02*
X157176500Y-54020000D01*
X156010000Y-47964000D02*
X157176500Y-49130500D01*
X153510000Y-40050000D02*
X153510000Y-47590000D01*
X153510000Y-47590000D02*
X148350000Y-52750000D01*
X151010000Y-40050000D02*
X151010000Y-47550000D01*
X151010000Y-47550000D02*
X148350000Y-50210000D01*
X136920000Y-40050000D02*
X136920000Y-56052000D01*
X135142000Y-57830000D02*
X126760000Y-57830000D01*
X136920000Y-56052000D02*
X135142000Y-57830000D01*
X134420000Y-40050000D02*
X134420000Y-48281500D01*
X134316500Y-55290000D02*
X126760000Y-55290000D01*
X135142000Y-54464500D02*
X134316500Y-55290000D01*
X135142000Y-49003500D02*
X135142000Y-54464500D01*
X134420000Y-48281500D02*
X135142000Y-49003500D01*
X131920000Y-40050000D02*
X131920000Y-47590000D01*
X131920000Y-47590000D02*
X126760000Y-52750000D01*
X129420000Y-40050000D02*
X129420000Y-47550000D01*
X129420000Y-47550000D02*
X126760000Y-50210000D01*
X115330000Y-40050000D02*
X115330000Y-54845500D01*
X112345500Y-57830000D02*
X105170000Y-57830000D01*
X115330000Y-54845500D02*
X112345500Y-57830000D01*
X105170000Y-55290000D02*
X112472500Y-55290000D01*
X112830000Y-47837000D02*
X112830000Y-40050000D01*
X113806000Y-48813000D02*
X112830000Y-47837000D01*
X113806000Y-53956500D02*
X113806000Y-48813000D01*
X112472500Y-55290000D02*
X113806000Y-53956500D01*
X110330000Y-40050000D02*
X110330000Y-47590000D01*
X110330000Y-47590000D02*
X105170000Y-52750000D01*
X107830000Y-40050000D02*
X107830000Y-47550000D01*
X107830000Y-47550000D02*
X105170000Y-50210000D01*
X83580000Y-57830000D02*
X91962000Y-57830000D01*
X93740000Y-56052000D02*
X93740000Y-40050000D01*
X91962000Y-57830000D02*
X93740000Y-56052000D01*
X83580000Y-55290000D02*
X90819000Y-55290000D01*
X91240000Y-46567000D02*
X91240000Y-40050000D01*
X92279500Y-47606500D02*
X91240000Y-46567000D01*
X92279500Y-53829500D02*
X92279500Y-47606500D01*
X90819000Y-55290000D02*
X92279500Y-53829500D01*
X88740000Y-40050000D02*
X88740000Y-47590000D01*
X88740000Y-47590000D02*
X83580000Y-52750000D01*
X86240000Y-40050000D02*
X86240000Y-47550000D01*
X86240000Y-47550000D02*
X83580000Y-50210000D01*
M02*
