G04 #@! TF.FileFunction,Copper,L1,Top,Signal*
%FSLAX46Y46*%
G04 Gerber Fmt 4.6, Leading zero omitted, Abs format (unit mm)*
G04 Created by KiCad (PCBNEW 4.0.7-e2-6376~61~ubuntu18.04.1) date Fri Mar 15 16:23:44 2019*
%MOMM*%
%LPD*%
G01*
G04 APERTURE LIST*
%ADD10C,0.100000*%
%ADD11R,2.000000X1.600000*%
%ADD12R,1.600000X2.000000*%
%ADD13R,4.000000X2.500000*%
%ADD14R,1.600000X1.600000*%
%ADD15C,1.600000*%
%ADD16R,1.500000X1.500000*%
%ADD17R,1.700000X1.700000*%
%ADD18O,1.700000X1.700000*%
%ADD19R,2.000000X1.700000*%
%ADD20R,1.700000X2.000000*%
%ADD21R,0.914400X0.304800*%
%ADD22R,1.803400X3.403600*%
%ADD23C,1.524000*%
%ADD24R,2.900000X5.400000*%
%ADD25R,3.000000X5.500000*%
%ADD26R,1.300000X1.500000*%
%ADD27R,1.500000X1.300000*%
%ADD28R,1.500000X0.450000*%
%ADD29R,1.750000X1.750000*%
%ADD30C,1.750000*%
%ADD31R,0.900000X0.800000*%
%ADD32C,2.000000*%
%ADD33C,0.600000*%
%ADD34C,0.750000*%
%ADD35C,0.600000*%
%ADD36C,0.250000*%
%ADD37C,0.300000*%
%ADD38C,0.350000*%
%ADD39C,0.400000*%
G04 APERTURE END LIST*
D10*
D11*
X74658500Y-59163500D03*
X78658500Y-59163500D03*
X64688500Y-121520500D03*
X60688500Y-121520500D03*
D12*
X68403500Y-124790500D03*
X68403500Y-120790500D03*
X63260000Y-132284000D03*
X63260000Y-136284000D03*
X60720000Y-136284000D03*
X60720000Y-132284000D03*
D13*
X36143500Y-134220500D03*
X42243500Y-134220500D03*
X53673500Y-123425500D03*
X47573500Y-123425500D03*
X53673500Y-134220500D03*
X47573500Y-134220500D03*
X36143500Y-123425500D03*
X42243500Y-123425500D03*
X36143500Y-112630500D03*
X42243500Y-112630500D03*
X53673500Y-112630500D03*
X47573500Y-112630500D03*
X53673500Y-101835500D03*
X47573500Y-101835500D03*
D14*
X154700000Y-50210000D03*
D15*
X154700000Y-52710000D03*
D14*
X111520000Y-50210000D03*
D15*
X111520000Y-52710000D03*
D14*
X89930000Y-50210000D03*
D15*
X89930000Y-52710000D03*
D14*
X133110000Y-50210000D03*
D15*
X133110000Y-52710000D03*
D16*
X66434000Y-103296000D03*
X63134000Y-103296000D03*
X71514000Y-80436000D03*
X68214000Y-80436000D03*
X71514000Y-88564000D03*
X68214000Y-88564000D03*
D17*
X128792000Y-95676000D03*
D18*
X131332000Y-95676000D03*
X128792000Y-98216000D03*
X131332000Y-98216000D03*
X128792000Y-100756000D03*
X131332000Y-100756000D03*
D17*
X128792000Y-85008000D03*
D18*
X131332000Y-85008000D03*
X128792000Y-87548000D03*
X131332000Y-87548000D03*
X128792000Y-90088000D03*
X131332000Y-90088000D03*
D17*
X78246000Y-109900000D03*
D18*
X78246000Y-112440000D03*
D17*
X94756000Y-77388000D03*
D18*
X97296000Y-77388000D03*
X99836000Y-77388000D03*
X102376000Y-77388000D03*
X104916000Y-77388000D03*
D17*
X78246000Y-104820000D03*
D18*
X78246000Y-102280000D03*
X78246000Y-99740000D03*
D17*
X121426000Y-120060000D03*
D18*
X121426000Y-122600000D03*
X121426000Y-125140000D03*
D17*
X78500000Y-130220000D03*
D18*
X78500000Y-132760000D03*
X78500000Y-135300000D03*
D17*
X78500000Y-126029000D03*
D18*
X78500000Y-123489000D03*
X78500000Y-120949000D03*
X78500000Y-118409000D03*
D17*
X121426000Y-99740000D03*
D18*
X121426000Y-102280000D03*
X121426000Y-104820000D03*
D17*
X78246000Y-94660000D03*
D18*
X78246000Y-92120000D03*
X78246000Y-89580000D03*
X78246000Y-87040000D03*
D17*
X121426000Y-87040000D03*
D18*
X121426000Y-89580000D03*
X121426000Y-92120000D03*
X121426000Y-94660000D03*
D17*
X158764000Y-67736000D03*
D18*
X158764000Y-70276000D03*
X156224000Y-67736000D03*
X156224000Y-70276000D03*
X153684000Y-67736000D03*
X153684000Y-70276000D03*
D17*
X138952000Y-67736000D03*
D18*
X138952000Y-70276000D03*
X136412000Y-67736000D03*
X136412000Y-70276000D03*
X133872000Y-67736000D03*
X133872000Y-70276000D03*
D17*
X117616000Y-68244000D03*
D18*
X117616000Y-70784000D03*
X115076000Y-68244000D03*
X115076000Y-70784000D03*
X112536000Y-68244000D03*
X112536000Y-70784000D03*
D17*
X95772000Y-67736000D03*
D18*
X95772000Y-70276000D03*
X93232000Y-67736000D03*
X93232000Y-70276000D03*
X90692000Y-67736000D03*
X90692000Y-70276000D03*
D17*
X164352000Y-67736000D03*
D18*
X164352000Y-70276000D03*
D17*
X144540000Y-67736000D03*
D18*
X144540000Y-70276000D03*
D17*
X123204000Y-68244000D03*
D18*
X123204000Y-70784000D03*
D17*
X101360000Y-67736000D03*
D18*
X101360000Y-70276000D03*
D19*
X62784000Y-99486000D03*
X66784000Y-99486000D03*
X78658500Y-62211500D03*
X74658500Y-62211500D03*
X60688500Y-124060500D03*
X64688500Y-124060500D03*
X66403500Y-132315500D03*
X70403500Y-132315500D03*
D20*
X58243500Y-137490500D03*
X58243500Y-133490500D03*
X58243500Y-130505500D03*
X58243500Y-126505500D03*
D19*
X67356000Y-83992000D03*
X71356000Y-83992000D03*
X67864000Y-92120000D03*
X71864000Y-92120000D03*
D21*
X64822100Y-129120500D03*
X64822100Y-128620500D03*
X64822100Y-128120500D03*
X64822100Y-127620500D03*
X64822100Y-127120500D03*
X64822100Y-126620500D03*
X61824900Y-126620500D03*
X61824900Y-127120500D03*
X61824900Y-127620500D03*
X61824900Y-128120500D03*
X61824900Y-128620500D03*
X61824900Y-129120500D03*
D22*
X63323500Y-127870500D03*
D15*
X107456000Y-102280000D03*
X107456000Y-99740000D03*
X107456000Y-97200000D03*
X107456000Y-94660000D03*
X107456000Y-104820000D03*
X107456000Y-107360000D03*
X107456000Y-109900000D03*
X107456000Y-92120000D03*
X107456000Y-89580000D03*
X107456000Y-87040000D03*
X107456000Y-84500000D03*
X104916000Y-97200000D03*
X102376000Y-97200000D03*
X99836000Y-97200000D03*
X97296000Y-97200000D03*
X94756000Y-97200000D03*
X92216000Y-84500000D03*
X92216000Y-87040000D03*
X92216000Y-89580000D03*
X92216000Y-92120000D03*
X92216000Y-94660000D03*
X92216000Y-97200000D03*
X92216000Y-99740000D03*
X92216000Y-102280000D03*
X107456000Y-112440000D03*
X107456000Y-114980000D03*
X107456000Y-117520000D03*
X107456000Y-120060000D03*
X107456000Y-122600000D03*
X107456000Y-125140000D03*
X107456000Y-127680000D03*
X107456000Y-130220000D03*
X107456000Y-132760000D03*
X107456000Y-135300000D03*
X107456000Y-137840000D03*
X107456000Y-140380000D03*
D14*
X107456000Y-142920000D03*
D15*
X92216000Y-104820000D03*
X92216000Y-107360000D03*
X92216000Y-109900000D03*
X92216000Y-112440000D03*
X92216000Y-114980000D03*
X92216000Y-117520000D03*
X92216000Y-120060000D03*
X92216000Y-122600000D03*
X92216000Y-125140000D03*
X92216000Y-127680000D03*
X92216000Y-130220000D03*
X92216000Y-132760000D03*
X92216000Y-135300000D03*
X92216000Y-137840000D03*
X92216000Y-140380000D03*
X92216000Y-142920000D03*
X94756000Y-140380000D03*
X94756000Y-135300000D03*
X94756000Y-132760000D03*
X94756000Y-130220000D03*
X99836000Y-127680000D03*
X99836000Y-125140000D03*
X99836000Y-122600000D03*
X99836000Y-120060000D03*
X99836000Y-104820000D03*
X99836000Y-102280000D03*
X99836000Y-99740000D03*
X99836000Y-94660000D03*
X99836000Y-92120000D03*
X99836000Y-89580000D03*
X99836000Y-87040000D03*
X99836000Y-84500000D03*
X97296000Y-84500000D03*
X97296000Y-87040000D03*
X97296000Y-89580000D03*
X97296000Y-92120000D03*
X97296000Y-94660000D03*
X97296000Y-99740000D03*
X97296000Y-102280000D03*
X97296000Y-104820000D03*
X97296000Y-120060000D03*
X97296000Y-122600000D03*
X97296000Y-125140000D03*
X97296000Y-127680000D03*
X104456000Y-136570000D03*
X104456000Y-134030000D03*
X104456000Y-131490000D03*
X104456000Y-128950000D03*
X104456000Y-126410000D03*
D23*
X161050000Y-62910000D03*
X148350000Y-45130000D03*
X161050000Y-60370000D03*
X161050000Y-57830000D03*
X161050000Y-55290000D03*
X161050000Y-52750000D03*
X161050000Y-50210000D03*
X161050000Y-47670000D03*
X161050000Y-45130000D03*
X148350000Y-47670000D03*
X148350000Y-50210000D03*
X148350000Y-52750000D03*
X148350000Y-55290000D03*
X148350000Y-57830000D03*
X148350000Y-60370000D03*
X148350000Y-62910000D03*
X139460000Y-62910000D03*
X126760000Y-45130000D03*
X139460000Y-60370000D03*
X139460000Y-57830000D03*
X139460000Y-55290000D03*
X139460000Y-52750000D03*
X139460000Y-50210000D03*
X139460000Y-47670000D03*
X139460000Y-45130000D03*
X126760000Y-47670000D03*
X126760000Y-50210000D03*
X126760000Y-52750000D03*
X126760000Y-55290000D03*
X126760000Y-57830000D03*
X126760000Y-60370000D03*
X126760000Y-62910000D03*
X117870000Y-62910000D03*
X105170000Y-45130000D03*
X117870000Y-60370000D03*
X117870000Y-57830000D03*
X117870000Y-55290000D03*
X117870000Y-52750000D03*
X117870000Y-50210000D03*
X117870000Y-47670000D03*
X117870000Y-45130000D03*
X105170000Y-47670000D03*
X105170000Y-50210000D03*
X105170000Y-52750000D03*
X105170000Y-55290000D03*
X105170000Y-57830000D03*
X105170000Y-60370000D03*
X105170000Y-62910000D03*
X96280000Y-62910000D03*
X83580000Y-45130000D03*
X96280000Y-60370000D03*
X96280000Y-57830000D03*
X96280000Y-55290000D03*
X96280000Y-52750000D03*
X96280000Y-50210000D03*
X96280000Y-47670000D03*
X96280000Y-45130000D03*
X83580000Y-47670000D03*
X83580000Y-50210000D03*
X83580000Y-52750000D03*
X83580000Y-55290000D03*
X83580000Y-57830000D03*
X83580000Y-60370000D03*
X83580000Y-62910000D03*
D17*
X87136000Y-142920000D03*
D18*
X87136000Y-140380000D03*
X87136000Y-137840000D03*
X87136000Y-135300000D03*
X87136000Y-132760000D03*
X87136000Y-130220000D03*
X87136000Y-127680000D03*
X87136000Y-125140000D03*
X87136000Y-122600000D03*
X87136000Y-120060000D03*
X87136000Y-117520000D03*
X87136000Y-114980000D03*
X87136000Y-112440000D03*
X87136000Y-109900000D03*
X87136000Y-107360000D03*
X87136000Y-104820000D03*
X87136000Y-102280000D03*
X87136000Y-99740000D03*
X87136000Y-97200000D03*
X87136000Y-94660000D03*
X87136000Y-92120000D03*
X87136000Y-89580000D03*
X87136000Y-87040000D03*
X87136000Y-84500000D03*
D17*
X82564000Y-142920000D03*
D18*
X82564000Y-140380000D03*
X82564000Y-137840000D03*
X82564000Y-135300000D03*
X82564000Y-132760000D03*
X82564000Y-130220000D03*
X82564000Y-127680000D03*
X82564000Y-125140000D03*
X82564000Y-122600000D03*
X82564000Y-120060000D03*
X82564000Y-117520000D03*
X82564000Y-114980000D03*
X82564000Y-112440000D03*
X82564000Y-109900000D03*
X82564000Y-107360000D03*
X82564000Y-104820000D03*
X82564000Y-102280000D03*
X82564000Y-99740000D03*
X82564000Y-97200000D03*
X82564000Y-94660000D03*
X82564000Y-92120000D03*
X82564000Y-89580000D03*
X82564000Y-87040000D03*
X82564000Y-84500000D03*
D17*
X117108000Y-84500000D03*
D18*
X117108000Y-87040000D03*
X117108000Y-89580000D03*
X117108000Y-92120000D03*
X117108000Y-94660000D03*
X117108000Y-97200000D03*
X117108000Y-99740000D03*
X117108000Y-102280000D03*
X117108000Y-104820000D03*
X117108000Y-107360000D03*
X117108000Y-109900000D03*
X117108000Y-112440000D03*
X117108000Y-114980000D03*
X117108000Y-117520000D03*
X117108000Y-120060000D03*
X117108000Y-122600000D03*
X117108000Y-125140000D03*
X117108000Y-127680000D03*
X117108000Y-130220000D03*
X117108000Y-132760000D03*
X117108000Y-135300000D03*
X117108000Y-137840000D03*
X117108000Y-140380000D03*
X117108000Y-142920000D03*
D17*
X112536000Y-84500000D03*
D18*
X112536000Y-87040000D03*
X112536000Y-89580000D03*
X112536000Y-92120000D03*
X112536000Y-94660000D03*
X112536000Y-97200000D03*
X112536000Y-99740000D03*
X112536000Y-102280000D03*
X112536000Y-104820000D03*
X112536000Y-107360000D03*
X112536000Y-109900000D03*
X112536000Y-112440000D03*
X112536000Y-114980000D03*
X112536000Y-117520000D03*
X112536000Y-120060000D03*
X112536000Y-122600000D03*
X112536000Y-125140000D03*
X112536000Y-127680000D03*
X112536000Y-130220000D03*
X112536000Y-132760000D03*
X112536000Y-135300000D03*
X112536000Y-137840000D03*
X112536000Y-140380000D03*
X112536000Y-142920000D03*
D24*
X70308500Y-111995500D03*
D25*
X60300900Y-112045500D03*
D26*
X46750000Y-82515000D03*
X46750000Y-85215000D03*
X56275000Y-85055000D03*
X56275000Y-87755000D03*
X46242000Y-68037000D03*
X46242000Y-70737000D03*
X56211500Y-70704000D03*
X56211500Y-73404000D03*
X46115000Y-53305000D03*
X46115000Y-56005000D03*
X56275000Y-55845000D03*
X56275000Y-58545000D03*
X46115000Y-38700000D03*
X46115000Y-41400000D03*
X56275000Y-41875000D03*
X56275000Y-44575000D03*
X30875000Y-82515000D03*
X30875000Y-85215000D03*
X40400000Y-85055000D03*
X40400000Y-87755000D03*
X30240000Y-67910000D03*
X30240000Y-70610000D03*
X40400000Y-70450000D03*
X40400000Y-73150000D03*
X30240000Y-53305000D03*
X30240000Y-56005000D03*
X40400000Y-55845000D03*
X40400000Y-58545000D03*
X30240000Y-38700000D03*
X30240000Y-41400000D03*
X40400000Y-41240000D03*
X40400000Y-43940000D03*
D27*
X75054500Y-66656500D03*
X77754500Y-66656500D03*
X75054500Y-64751500D03*
X77754500Y-64751500D03*
D28*
X67324000Y-66720000D03*
X67324000Y-66070000D03*
X67324000Y-65420000D03*
X67324000Y-64770000D03*
X67324000Y-64120000D03*
X67324000Y-63470000D03*
X67324000Y-62820000D03*
X67324000Y-62170000D03*
X67324000Y-61520000D03*
X67324000Y-60870000D03*
X67324000Y-60220000D03*
X67324000Y-59570000D03*
X61524000Y-59570000D03*
X61524000Y-60220000D03*
X61524000Y-60870000D03*
X61524000Y-61520000D03*
X61524000Y-62170000D03*
X61524000Y-62820000D03*
X61524000Y-63470000D03*
X61524000Y-64120000D03*
X61524000Y-64770000D03*
X61524000Y-65420000D03*
X61524000Y-66070000D03*
X61524000Y-66720000D03*
D29*
X33796000Y-145714000D03*
D30*
X36296000Y-145714000D03*
X38796000Y-145714000D03*
D29*
X45988000Y-145714000D03*
D30*
X48488000Y-145714000D03*
X50988000Y-145714000D03*
D29*
X58180000Y-145714000D03*
D30*
X60680000Y-145714000D03*
X63180000Y-145714000D03*
D29*
X132348000Y-77642000D03*
D30*
X129848000Y-77642000D03*
X127348000Y-77642000D03*
X124848000Y-77642000D03*
D29*
X70372000Y-145714000D03*
D30*
X72872000Y-145714000D03*
X75372000Y-145714000D03*
D29*
X35955000Y-38780000D03*
D30*
X35955000Y-41280000D03*
X35955000Y-43780000D03*
X35955000Y-46280000D03*
D29*
X35955000Y-53385000D03*
D30*
X35955000Y-55885000D03*
X35955000Y-58385000D03*
X35955000Y-60885000D03*
D29*
X35955000Y-67990000D03*
D30*
X35955000Y-70490000D03*
X35955000Y-72990000D03*
X35955000Y-75490000D03*
D29*
X35955000Y-82595000D03*
D30*
X35955000Y-85095000D03*
X35955000Y-87595000D03*
X35955000Y-90095000D03*
D29*
X51830000Y-82595000D03*
D30*
X51830000Y-85095000D03*
X51830000Y-87595000D03*
X51830000Y-90095000D03*
D29*
X51830000Y-67990000D03*
D30*
X51830000Y-70490000D03*
X51830000Y-72990000D03*
X51830000Y-75490000D03*
D29*
X51830000Y-53385000D03*
D30*
X51830000Y-55885000D03*
X51830000Y-58385000D03*
X51830000Y-60885000D03*
D29*
X51830000Y-38780000D03*
D30*
X51830000Y-41280000D03*
X51830000Y-43780000D03*
X51830000Y-46280000D03*
D29*
X129427000Y-112440000D03*
D30*
X129427000Y-114940000D03*
X129427000Y-117440000D03*
X129427000Y-119940000D03*
D17*
X73420000Y-43161500D03*
D18*
X75960000Y-43161500D03*
X73420000Y-45701500D03*
X75960000Y-45701500D03*
X73420000Y-48241500D03*
X75960000Y-48241500D03*
X73420000Y-50781500D03*
X75960000Y-50781500D03*
D29*
X158510000Y-40050000D03*
D30*
X156010000Y-40050000D03*
X153510000Y-40050000D03*
X151010000Y-40050000D03*
D29*
X136920000Y-40050000D03*
D30*
X134420000Y-40050000D03*
X131920000Y-40050000D03*
X129420000Y-40050000D03*
D29*
X115330000Y-40050000D03*
D30*
X112830000Y-40050000D03*
X110330000Y-40050000D03*
X107830000Y-40050000D03*
D29*
X93740000Y-40050000D03*
D30*
X91240000Y-40050000D03*
X88740000Y-40050000D03*
X86240000Y-40050000D03*
D31*
X68038500Y-127555500D03*
X68038500Y-129455500D03*
X70038500Y-128505500D03*
D19*
X83000000Y-74000000D03*
X87000000Y-74000000D03*
X87000000Y-78000000D03*
X83000000Y-78000000D03*
D32*
X89460000Y-158000000D03*
X94540000Y-158000000D03*
D33*
X83000000Y-76000000D03*
X57600000Y-124000000D03*
X65500000Y-126000000D03*
X99800000Y-83200000D03*
X43000000Y-126500000D03*
X76700000Y-59200000D03*
X68800000Y-66200000D03*
X66500000Y-80500000D03*
X66700000Y-88600000D03*
X61100000Y-103300000D03*
X67659500Y-135059500D03*
X96100000Y-83400000D03*
X41000000Y-69000000D03*
X46800000Y-81100000D03*
X41700000Y-85100000D03*
X76800000Y-66600000D03*
X76700000Y-62200000D03*
X40400000Y-54500000D03*
X56300000Y-54600000D03*
X67300000Y-67400000D03*
X57200000Y-69800000D03*
X57900000Y-84700000D03*
X55100000Y-136500000D03*
X58688000Y-50972000D03*
X68848000Y-56052000D03*
X59000000Y-58200000D03*
X42000000Y-67400000D03*
X59000000Y-59400000D03*
X42800000Y-65600000D03*
X59200000Y-60400000D03*
X44000000Y-80600000D03*
X42400000Y-83400000D03*
X59200000Y-61400000D03*
X57200000Y-47000000D03*
X57200000Y-51600000D03*
X55600000Y-47400000D03*
X56200000Y-51600000D03*
X58180000Y-69260000D03*
X58180000Y-66212000D03*
X59958000Y-84754000D03*
X59958000Y-81960000D03*
X130500000Y-61200000D03*
X73600000Y-121000000D03*
X70900000Y-117600000D03*
X79262000Y-150794000D03*
X79135000Y-145269500D03*
X66816000Y-126727500D03*
X66181000Y-128251500D03*
X59894500Y-129712000D03*
X59894500Y-127934000D03*
X76600000Y-70800000D03*
X106059000Y-88310000D03*
X106122500Y-85770000D03*
X106059000Y-90850000D03*
X71134000Y-61640000D03*
X72150000Y-61640000D03*
X72912000Y-60878000D03*
X73000000Y-98000000D03*
X73000000Y-95000000D03*
X89000000Y-81000000D03*
X89000000Y-79000000D03*
X76468000Y-63608500D03*
X101800000Y-63800000D03*
X104200000Y-98800000D03*
X104000000Y-80000000D03*
X127200000Y-94800000D03*
X127200000Y-92800000D03*
X121800000Y-64000000D03*
X122400000Y-66000000D03*
X121000000Y-67600000D03*
X121000000Y-75000000D03*
X121800000Y-76800000D03*
X120400000Y-82600000D03*
X123400000Y-84000000D03*
X137600000Y-78600000D03*
X136600000Y-82800000D03*
X126400000Y-90800000D03*
X120200000Y-109000000D03*
X94756000Y-136760500D03*
X102200000Y-99000000D03*
X102600000Y-101200000D03*
X106122500Y-93390000D03*
X129808000Y-66212000D03*
D34*
X83000000Y-78000000D02*
X83000000Y-76000000D01*
D35*
X58243500Y-124000000D02*
X57600000Y-124000000D01*
X60688500Y-121520500D02*
X59279500Y-121520500D01*
X58243500Y-122556500D02*
X58243500Y-124000000D01*
X58243500Y-124000000D02*
X58243500Y-126505500D01*
X59279500Y-121520500D02*
X58243500Y-122556500D01*
D36*
X63323500Y-127870500D02*
X63323500Y-126176500D01*
X63323500Y-126176500D02*
X63500000Y-126000000D01*
X63500000Y-126000000D02*
X65500000Y-126000000D01*
X64822100Y-126620500D02*
X64879500Y-126620500D01*
X64879500Y-126620500D02*
X65500000Y-126000000D01*
D37*
X99836000Y-84500000D02*
X99836000Y-83236000D01*
X99836000Y-83236000D02*
X99800000Y-83200000D01*
D34*
X42243500Y-126500000D02*
X43000000Y-126500000D01*
D38*
X78658500Y-59163500D02*
X76736500Y-59163500D01*
X76736500Y-59163500D02*
X76700000Y-59200000D01*
X67324000Y-66070000D02*
X68670000Y-66070000D01*
X68670000Y-66070000D02*
X68800000Y-66200000D01*
D34*
X68214000Y-80436000D02*
X66564000Y-80436000D01*
X66564000Y-80436000D02*
X66500000Y-80500000D01*
X68214000Y-88564000D02*
X66736000Y-88564000D01*
X66736000Y-88564000D02*
X66700000Y-88600000D01*
X63134000Y-103296000D02*
X61104000Y-103296000D01*
X61104000Y-103296000D02*
X61100000Y-103300000D01*
X42243500Y-112630500D02*
X47573500Y-112630500D01*
X47573500Y-112630500D02*
X47573500Y-101835500D01*
X47573500Y-123425500D02*
X47573500Y-112630500D01*
X47573500Y-123425500D02*
X42243500Y-123425500D01*
X42243500Y-134220500D02*
X42243500Y-126500000D01*
X42243500Y-126500000D02*
X42243500Y-123425500D01*
X47573500Y-134220500D02*
X42243500Y-134220500D01*
X63260000Y-136284000D02*
X66435000Y-136284000D01*
X66435000Y-136284000D02*
X67659500Y-135059500D01*
X67659500Y-135059500D02*
X70403500Y-132315500D01*
X68038500Y-129455500D02*
X68038500Y-129950500D01*
X68038500Y-129950500D02*
X70403500Y-132315500D01*
D35*
X117108000Y-142920000D02*
X107456000Y-142920000D01*
X35955000Y-67990000D02*
X30320000Y-67990000D01*
X30320000Y-67990000D02*
X30240000Y-67910000D01*
X36143500Y-134220500D02*
X36143500Y-123425500D01*
D39*
X97296000Y-84500000D02*
X97200000Y-84500000D01*
X97200000Y-84500000D02*
X96100000Y-83400000D01*
X46242000Y-68037000D02*
X51783000Y-68037000D01*
X51783000Y-68037000D02*
X51830000Y-67990000D01*
D38*
X40400000Y-70450000D02*
X40400000Y-69600000D01*
X40400000Y-69600000D02*
X41000000Y-69000000D01*
D39*
X30240000Y-67910000D02*
X35875000Y-67910000D01*
X35875000Y-67910000D02*
X35955000Y-67990000D01*
X30875000Y-82515000D02*
X35875000Y-82515000D01*
X35875000Y-82515000D02*
X35955000Y-82595000D01*
D36*
X46750000Y-82515000D02*
X46750000Y-81150000D01*
X46750000Y-81150000D02*
X46800000Y-81100000D01*
X40400000Y-85055000D02*
X41655000Y-85055000D01*
X41655000Y-85055000D02*
X41700000Y-85100000D01*
D37*
X97296000Y-84500000D02*
X96800000Y-84500000D01*
X77754500Y-64751500D02*
X77754500Y-66656500D01*
X77754500Y-66656500D02*
X76856500Y-66656500D01*
X76856500Y-66656500D02*
X76800000Y-66600000D01*
D38*
X78658500Y-62211500D02*
X76711500Y-62211500D01*
X76711500Y-62211500D02*
X76700000Y-62200000D01*
X46115000Y-38700000D02*
X51750000Y-38700000D01*
X51750000Y-38700000D02*
X51850000Y-38800000D01*
X51850000Y-38800000D02*
X53200000Y-38800000D01*
X53200000Y-38800000D02*
X56275000Y-41875000D01*
X30240000Y-38700000D02*
X35875000Y-38700000D01*
X35875000Y-38700000D02*
X35975000Y-38800000D01*
X35975000Y-38800000D02*
X37960000Y-38800000D01*
X37960000Y-38800000D02*
X40400000Y-41240000D01*
X35955000Y-53385000D02*
X30320000Y-53385000D01*
X30320000Y-53385000D02*
X30240000Y-53305000D01*
X40400000Y-55845000D02*
X40400000Y-54500000D01*
X35875000Y-53305000D02*
X35955000Y-53385000D01*
X51830000Y-53385000D02*
X49400000Y-53385000D01*
X49400000Y-53385000D02*
X46195000Y-53385000D01*
X46195000Y-53385000D02*
X46115000Y-53305000D01*
X56275000Y-55845000D02*
X56275000Y-54625000D01*
X56275000Y-54625000D02*
X56300000Y-54600000D01*
X67324000Y-66720000D02*
X67324000Y-67376000D01*
X67324000Y-67376000D02*
X67300000Y-67400000D01*
D34*
X56211500Y-70704000D02*
X56296000Y-70704000D01*
X56296000Y-70704000D02*
X57200000Y-69800000D01*
X56275000Y-85055000D02*
X57545000Y-85055000D01*
X57545000Y-85055000D02*
X57900000Y-84700000D01*
X53673500Y-101835500D02*
X53673500Y-101126500D01*
X53673500Y-101126500D02*
X55314000Y-99486000D01*
X55314000Y-99486000D02*
X62784000Y-99486000D01*
X53673500Y-112630500D02*
X59715900Y-112630500D01*
X59715900Y-112630500D02*
X60300900Y-112045500D01*
X55100000Y-137490500D02*
X55100000Y-136500000D01*
X58243500Y-137490500D02*
X59513500Y-137490500D01*
X59513500Y-137490500D02*
X60720000Y-136284000D01*
X51497000Y-136397000D02*
X52397000Y-136397000D01*
X52397000Y-136397000D02*
X53490500Y-137490500D01*
X53490500Y-137490500D02*
X55100000Y-137490500D01*
X55100000Y-137490500D02*
X58243500Y-137490500D01*
X36143500Y-134220500D02*
X36143500Y-134843500D01*
X36143500Y-134843500D02*
X38200000Y-136900000D01*
X50994000Y-136900000D02*
X51497000Y-136397000D01*
X51497000Y-136397000D02*
X53673500Y-134220500D01*
X38200000Y-136900000D02*
X50994000Y-136900000D01*
X36143500Y-112630500D02*
X36143500Y-134220500D01*
X53673500Y-134220500D02*
X53673500Y-123425500D01*
X53673500Y-123425500D02*
X53673500Y-112630500D01*
X53673500Y-112630500D02*
X53673500Y-101835500D01*
D35*
X107456000Y-107360000D02*
X112536000Y-107360000D01*
X112536000Y-107360000D02*
X117108000Y-107360000D01*
D36*
X51750000Y-82515000D02*
X51830000Y-82595000D01*
X51750000Y-67910000D02*
X51830000Y-67990000D01*
X35875000Y-82515000D02*
X35955000Y-82595000D01*
X35875000Y-67910000D02*
X35955000Y-67990000D01*
X35875000Y-53305000D02*
X35955000Y-53385000D01*
X35875000Y-38700000D02*
X35955000Y-38780000D01*
X51750000Y-53305000D02*
X51830000Y-53385000D01*
X51750000Y-53305000D02*
X51830000Y-53385000D01*
X51750000Y-38700000D02*
X51830000Y-38780000D01*
D35*
X117108000Y-92120000D02*
X112536000Y-92120000D01*
X112536000Y-92120000D02*
X107456000Y-92120000D01*
X139460000Y-47670000D02*
X141873000Y-47670000D01*
X119838500Y-89643500D02*
X117108000Y-92120000D01*
X119838500Y-85071500D02*
X119838500Y-89643500D01*
X122759500Y-81896500D02*
X119838500Y-85071500D01*
X135523000Y-81896500D02*
X122759500Y-81896500D01*
X146572000Y-70847500D02*
X135523000Y-81896500D01*
X146572000Y-52369000D02*
X146572000Y-70847500D01*
X141873000Y-47670000D02*
X146572000Y-52369000D01*
D36*
X117108000Y-89580000D02*
X117743000Y-89580000D01*
D35*
X117743000Y-89580000D02*
X118822500Y-88500500D01*
X120029000Y-49829000D02*
X117870000Y-47670000D01*
X120029000Y-59608000D02*
X120029000Y-49829000D01*
X125109000Y-64688000D02*
X120029000Y-59608000D01*
X125109000Y-72181000D02*
X125109000Y-64688000D01*
X118822500Y-78467500D02*
X125109000Y-72181000D01*
X118822500Y-88500500D02*
X118822500Y-78467500D01*
X112536000Y-89580000D02*
X117108000Y-89580000D01*
X107456000Y-89580000D02*
X112536000Y-89580000D01*
X107456000Y-120060000D02*
X112536000Y-120060000D01*
X107456000Y-120060000D02*
X117108000Y-120060000D01*
X107456000Y-122600000D02*
X112536000Y-122600000D01*
X107456000Y-122600000D02*
X117108000Y-122600000D01*
X112536000Y-125140000D02*
X117108000Y-125140000D01*
X107456000Y-125140000D02*
X112536000Y-125140000D01*
X70308500Y-111995500D02*
X72658000Y-111995500D01*
X70975000Y-120790500D02*
X68403500Y-120790500D01*
X73356500Y-118409000D02*
X70975000Y-120790500D01*
X73356500Y-112694000D02*
X73356500Y-118409000D01*
X72658000Y-111995500D02*
X73356500Y-112694000D01*
D37*
X64822100Y-127120500D02*
X65470500Y-127120500D01*
X67482500Y-120790500D02*
X68403500Y-120790500D01*
X66689000Y-121584000D02*
X67482500Y-120790500D01*
X66689000Y-125902000D02*
X66689000Y-121584000D01*
X65470500Y-127120500D02*
X66689000Y-125902000D01*
D38*
X67324000Y-61520000D02*
X69476000Y-61520000D01*
X44638000Y-48178000D02*
X40240000Y-43780000D01*
X63514000Y-48178000D02*
X44638000Y-48178000D01*
X70372000Y-55036000D02*
X63514000Y-48178000D01*
X70372000Y-60624000D02*
X70372000Y-55036000D01*
X69476000Y-61520000D02*
X70372000Y-60624000D01*
X40240000Y-43780000D02*
X35955000Y-43780000D01*
D36*
X36115000Y-43940000D02*
X35955000Y-43780000D01*
D38*
X35955000Y-41280000D02*
X30360000Y-41280000D01*
X30360000Y-41280000D02*
X30240000Y-41400000D01*
X67324000Y-60870000D02*
X69110000Y-60870000D01*
X30240000Y-43606000D02*
X30240000Y-41400000D01*
X35574000Y-48940000D02*
X30240000Y-43606000D01*
X63260000Y-48940000D02*
X35574000Y-48940000D01*
X69610000Y-55290000D02*
X63260000Y-48940000D01*
X69610000Y-60370000D02*
X69610000Y-55290000D01*
X69110000Y-60870000D02*
X69610000Y-60370000D01*
D36*
X35835000Y-41400000D02*
X35955000Y-41280000D01*
D38*
X67324000Y-60220000D02*
X68744000Y-60220000D01*
X42178000Y-56767000D02*
X40560000Y-58385000D01*
X42178000Y-54528000D02*
X42178000Y-56767000D01*
X45988000Y-50718000D02*
X42178000Y-54528000D01*
X58434000Y-50718000D02*
X45988000Y-50718000D01*
X58688000Y-50972000D02*
X58434000Y-50718000D01*
X68848000Y-60116000D02*
X68848000Y-56052000D01*
X68744000Y-60220000D02*
X68848000Y-60116000D01*
X40560000Y-58385000D02*
X35955000Y-58385000D01*
D36*
X40607000Y-58545000D02*
X40400000Y-58545000D01*
X36115000Y-58545000D02*
X35955000Y-58385000D01*
D38*
X30240000Y-56005000D02*
X35835000Y-56005000D01*
X35835000Y-56005000D02*
X35955000Y-55885000D01*
X67324000Y-59570000D02*
X67324000Y-55798000D01*
X41884000Y-49956000D02*
X35955000Y-55885000D01*
X61482000Y-49956000D02*
X41884000Y-49956000D01*
X67324000Y-55798000D02*
X61482000Y-49956000D01*
D36*
X35835000Y-56005000D02*
X35955000Y-55885000D01*
D38*
X59400000Y-58200000D02*
X60770000Y-59570000D01*
X61524000Y-59570000D02*
X60770000Y-59570000D01*
X59000000Y-58200000D02*
X59400000Y-58200000D01*
X42000000Y-71800000D02*
X40650000Y-73150000D01*
X42000000Y-67400000D02*
X42000000Y-71800000D01*
X40650000Y-73150000D02*
X40400000Y-73150000D01*
X39130000Y-72990000D02*
X39130000Y-72816000D01*
X39130000Y-72816000D02*
X39130000Y-72990000D01*
X40560000Y-72990000D02*
X39130000Y-72990000D01*
X39130000Y-72990000D02*
X35955000Y-72990000D01*
D36*
X36115000Y-73150000D02*
X35955000Y-72990000D01*
D38*
X37910000Y-70490000D02*
X35955000Y-70490000D01*
X60220000Y-60220000D02*
X59400000Y-59400000D01*
X59400000Y-59400000D02*
X59000000Y-59400000D01*
X61524000Y-60220000D02*
X60220000Y-60220000D01*
X42800000Y-65600000D02*
X37910000Y-70490000D01*
D35*
X30240000Y-70610000D02*
X35835000Y-70610000D01*
X35835000Y-70610000D02*
X35955000Y-70490000D01*
D38*
X30360000Y-70490000D02*
X30240000Y-70610000D01*
D36*
X35835000Y-70610000D02*
X35955000Y-70490000D01*
D38*
X59670000Y-60870000D02*
X59200000Y-60400000D01*
X61524000Y-60870000D02*
X59670000Y-60870000D01*
X41445000Y-87755000D02*
X40400000Y-87755000D01*
X44000000Y-85200000D02*
X41445000Y-87755000D01*
X44000000Y-80600000D02*
X44000000Y-85200000D01*
X40400000Y-87755000D02*
X36115000Y-87755000D01*
X36115000Y-87755000D02*
X35955000Y-87595000D01*
D36*
X40240000Y-87595000D02*
X40400000Y-87755000D01*
D38*
X37705000Y-85095000D02*
X35955000Y-85095000D01*
X39400000Y-83400000D02*
X37705000Y-85095000D01*
X42400000Y-83400000D02*
X39400000Y-83400000D01*
X61524000Y-61520000D02*
X59320000Y-61520000D01*
X59320000Y-61520000D02*
X59200000Y-61400000D01*
X35835000Y-85215000D02*
X30875000Y-85215000D01*
D36*
X35835000Y-85215000D02*
X35955000Y-85095000D01*
D38*
X58200000Y-55600000D02*
X58200000Y-52600000D01*
X58770000Y-62170000D02*
X58200000Y-61600000D01*
X58200000Y-61600000D02*
X58200000Y-55600000D01*
X61524000Y-62170000D02*
X58770000Y-62170000D01*
X56275000Y-46075000D02*
X56275000Y-44575000D01*
X57200000Y-47000000D02*
X56275000Y-46075000D01*
X58200000Y-52600000D02*
X57200000Y-51600000D01*
X51830000Y-43780000D02*
X52380000Y-43780000D01*
X52380000Y-43780000D02*
X53175000Y-44575000D01*
X53175000Y-44575000D02*
X56275000Y-44575000D01*
X57649998Y-55600000D02*
X57649998Y-53249998D01*
X58620000Y-62820000D02*
X57649998Y-61849998D01*
X57649998Y-61849998D02*
X57649998Y-55600000D01*
X61524000Y-62820000D02*
X58620000Y-62820000D01*
X46115000Y-43115000D02*
X46115000Y-41400000D01*
X50627998Y-47627998D02*
X46115000Y-43115000D01*
X55372002Y-47627998D02*
X50627998Y-47627998D01*
X55600000Y-47400000D02*
X55372002Y-47627998D01*
X56200000Y-51800000D02*
X56200000Y-51600000D01*
X57649998Y-53249998D02*
X56200000Y-51800000D01*
X51830000Y-41280000D02*
X46235000Y-41280000D01*
X46235000Y-41280000D02*
X46115000Y-41400000D01*
D36*
X51710000Y-41400000D02*
X51830000Y-41280000D01*
D38*
X56275000Y-58545000D02*
X51990000Y-58545000D01*
X51990000Y-58545000D02*
X51830000Y-58385000D01*
X61524000Y-63470000D02*
X56915000Y-63470000D01*
X56915000Y-63470000D02*
X51830000Y-58385000D01*
D36*
X51990000Y-58545000D02*
X51830000Y-58385000D01*
D38*
X46115000Y-56005000D02*
X51710000Y-56005000D01*
X51710000Y-56005000D02*
X51830000Y-55885000D01*
X61524000Y-64120000D02*
X51770000Y-64120000D01*
X46115000Y-58465000D02*
X46115000Y-56005000D01*
X51770000Y-64120000D02*
X46115000Y-58465000D01*
D36*
X51710000Y-56005000D02*
X51830000Y-55885000D01*
D38*
X61524000Y-64770000D02*
X59622000Y-64770000D01*
X58180000Y-71800000D02*
X56576000Y-73404000D01*
X58180000Y-69260000D02*
X58180000Y-71800000D01*
X59622000Y-64770000D02*
X58180000Y-66212000D01*
X56576000Y-73404000D02*
X52244000Y-73404000D01*
X52244000Y-73404000D02*
X51830000Y-72990000D01*
D36*
X52244000Y-73404000D02*
X51830000Y-72990000D01*
D38*
X61524000Y-65420000D02*
X60242000Y-65420000D01*
X53314000Y-69006000D02*
X51583000Y-70737000D01*
X56656000Y-69006000D02*
X53314000Y-69006000D01*
X60242000Y-65420000D02*
X56656000Y-69006000D01*
X51583000Y-70737000D02*
X46242000Y-70737000D01*
D36*
X51583000Y-70737000D02*
X51830000Y-70490000D01*
D34*
X56275000Y-87755000D02*
X51990000Y-87755000D01*
X51990000Y-87755000D02*
X51830000Y-87595000D01*
D38*
X59958000Y-70530000D02*
X59958000Y-81960000D01*
X60608000Y-66070000D02*
X59958000Y-66720000D01*
X59958000Y-66720000D02*
X59958000Y-70530000D01*
X61524000Y-66070000D02*
X60608000Y-66070000D01*
X56957000Y-87755000D02*
X51990000Y-87755000D01*
X59958000Y-84754000D02*
X56957000Y-87755000D01*
X51990000Y-87755000D02*
X51830000Y-87595000D01*
D36*
X51990000Y-87755000D02*
X51830000Y-87595000D01*
D38*
X51830000Y-85095000D02*
X46870000Y-85095000D01*
X46870000Y-85095000D02*
X46750000Y-85215000D01*
X61524000Y-66720000D02*
X61524000Y-81664000D01*
X53441000Y-83484000D02*
X51830000Y-85095000D01*
X59704000Y-83484000D02*
X53441000Y-83484000D01*
X61524000Y-81664000D02*
X59704000Y-83484000D01*
D36*
X51710000Y-85215000D02*
X51830000Y-85095000D01*
D39*
X107456000Y-135300000D02*
X99864502Y-135300000D01*
D38*
X40360000Y-149778000D02*
X36296000Y-145714000D01*
D39*
X92851000Y-149778000D02*
X40360000Y-149778000D01*
X98629500Y-143999500D02*
X92851000Y-149778000D01*
X98629500Y-136535002D02*
X98629500Y-143999500D01*
X99864502Y-135300000D02*
X98629500Y-136535002D01*
D35*
X117108000Y-135300000D02*
X112536000Y-135300000D01*
X107456000Y-135300000D02*
X112536000Y-135300000D01*
D39*
X107456000Y-132760000D02*
X99582000Y-132760000D01*
D38*
X51853500Y-149079500D02*
X48488000Y-145714000D01*
D39*
X92533500Y-149079500D02*
X51853500Y-149079500D01*
X97994500Y-143618500D02*
X92533500Y-149079500D01*
X97994500Y-134347500D02*
X97994500Y-143618500D01*
X99582000Y-132760000D02*
X97994500Y-134347500D01*
D35*
X117108000Y-132760000D02*
X112536000Y-132760000D01*
X112536000Y-132760000D02*
X107456000Y-132760000D01*
D39*
X107456000Y-130220000D02*
X101169500Y-130220000D01*
D38*
X63347000Y-148381000D02*
X60680000Y-145714000D01*
X92343000Y-148381000D02*
X63347000Y-148381000D01*
D39*
X97359500Y-143364500D02*
X92343000Y-148381000D01*
X97359500Y-134030000D02*
X97359500Y-143364500D01*
X101169500Y-130220000D02*
X97359500Y-134030000D01*
D35*
X107456000Y-130220000D02*
X112536000Y-130220000D01*
X112536000Y-130220000D02*
X117108000Y-130220000D01*
D39*
X76531500Y-147682500D02*
X74840500Y-147682500D01*
X102630000Y-127680000D02*
X96724500Y-133585500D01*
X96724500Y-133585500D02*
X96724500Y-142983500D01*
X96724500Y-142983500D02*
X92025500Y-147682500D01*
X92025500Y-147682500D02*
X76531500Y-147682500D01*
X107456000Y-127680000D02*
X102630000Y-127680000D01*
X74840500Y-147682500D02*
X72872000Y-145714000D01*
D38*
X72872000Y-145714000D02*
X72975500Y-145714000D01*
D35*
X112536000Y-127680000D02*
X117108000Y-127680000D01*
X107456000Y-127680000D02*
X112536000Y-127680000D01*
D38*
X67324000Y-64120000D02*
X66080000Y-64120000D01*
X102956000Y-80000000D02*
X107456000Y-84500000D01*
X76400000Y-80000000D02*
X102956000Y-80000000D01*
X65000000Y-68600000D02*
X76400000Y-80000000D01*
X65000000Y-65200000D02*
X65000000Y-68600000D01*
X66080000Y-64120000D02*
X65000000Y-65200000D01*
D39*
X74658500Y-59163500D02*
X74658500Y-62211500D01*
X67324000Y-64120000D02*
X72750000Y-64120000D01*
X72750000Y-64120000D02*
X74658500Y-62211500D01*
D34*
X89460000Y-158000000D02*
X89460000Y-153715000D01*
X83000000Y-74000000D02*
X83000000Y-63490000D01*
X83000000Y-63490000D02*
X83580000Y-62910000D01*
X154700000Y-52710000D02*
X154700000Y-58000000D01*
X149790000Y-62910000D02*
X148350000Y-62910000D01*
X154700000Y-58000000D02*
X149790000Y-62910000D01*
X133110000Y-52710000D02*
X133110000Y-56390000D01*
X130500000Y-59000000D02*
X130500000Y-61200000D01*
X133110000Y-56390000D02*
X130500000Y-59000000D01*
X105170000Y-62910000D02*
X108290000Y-62910000D01*
X111520000Y-59680000D02*
X111520000Y-52710000D01*
X108290000Y-62910000D02*
X111520000Y-59680000D01*
X83580000Y-62910000D02*
X86090000Y-62910000D01*
X89930000Y-59070000D02*
X89930000Y-52710000D01*
X86090000Y-62910000D02*
X89930000Y-59070000D01*
D35*
X64688500Y-121520500D02*
X64688500Y-120411500D01*
X70038500Y-124561500D02*
X70038500Y-128505500D01*
X73600000Y-121000000D02*
X70038500Y-124561500D01*
X67500000Y-117600000D02*
X70900000Y-117600000D01*
X64688500Y-120411500D02*
X67500000Y-117600000D01*
X64688500Y-124060500D02*
X64688500Y-121520500D01*
D34*
X70038500Y-128505500D02*
X70038500Y-128807000D01*
X70038500Y-128807000D02*
X75642500Y-134411000D01*
X79452500Y-150984500D02*
X82310000Y-153715000D01*
X79262000Y-150794000D02*
X79452500Y-150984500D01*
X79135000Y-143110500D02*
X79135000Y-145269500D01*
X75642500Y-139618000D02*
X79135000Y-143110500D01*
X75642500Y-134411000D02*
X75642500Y-139618000D01*
X68038500Y-127555500D02*
X69088500Y-127555500D01*
X69088500Y-127555500D02*
X70038500Y-128505500D01*
X89001000Y-52710000D02*
X89930000Y-52710000D01*
X89001000Y-52710000D02*
X87199500Y-50908500D01*
X87199500Y-50908500D02*
X87199500Y-48813000D01*
X87199500Y-48813000D02*
X92597000Y-43415500D01*
X92597000Y-43415500D02*
X164669500Y-43415500D01*
X164669500Y-43415500D02*
X168416000Y-47162000D01*
X168416000Y-47162000D02*
X168416000Y-72689000D01*
X168416000Y-72689000D02*
X165368000Y-75737000D01*
X165368000Y-75737000D02*
X155589000Y-75737000D01*
X155589000Y-75737000D02*
X135396000Y-95930000D01*
X135396000Y-95930000D02*
X135396000Y-134411000D01*
X135396000Y-134411000D02*
X116092000Y-153715000D01*
X116092000Y-153715000D02*
X89460000Y-153715000D01*
X89460000Y-153715000D02*
X82310000Y-153715000D01*
X82310000Y-153715000D02*
X82310000Y-153715000D01*
D38*
X89930000Y-52710000D02*
X89636000Y-52710000D01*
D37*
X69088500Y-127555500D02*
X70038500Y-128505500D01*
X64822100Y-127620500D02*
X67973500Y-127620500D01*
X67973500Y-127620500D02*
X68038500Y-127555500D01*
X64822100Y-128120500D02*
X66050000Y-128120500D01*
X66816000Y-126727500D02*
X68403500Y-125140000D01*
X66050000Y-128120500D02*
X66181000Y-128251500D01*
X68403500Y-125140000D02*
X68403500Y-124790500D01*
X63260000Y-132284000D02*
X63165000Y-132284000D01*
X63165000Y-132284000D02*
X60872400Y-129991400D01*
X64822100Y-129120500D02*
X64822100Y-130721900D01*
X64822100Y-130721900D02*
X63260000Y-132284000D01*
X61824900Y-127620500D02*
X60208000Y-127620500D01*
X60173900Y-129991400D02*
X60872400Y-129991400D01*
X60872400Y-129991400D02*
X61824900Y-129991400D01*
X59894500Y-129712000D02*
X60173900Y-129991400D01*
X60208000Y-127620500D02*
X59894500Y-127934000D01*
X61824900Y-128620500D02*
X61824900Y-129120500D01*
X61824900Y-129120500D02*
X61824900Y-129991400D01*
X63260000Y-131426500D02*
X63260000Y-132284000D01*
X61824900Y-128120500D02*
X60628500Y-128120500D01*
X60628500Y-128120500D02*
X58243500Y-130505500D01*
X60720000Y-132284000D02*
X58243500Y-132284000D01*
X58307000Y-132252000D02*
X58243500Y-132252000D01*
X58275500Y-132252000D02*
X58307000Y-132252000D01*
X58243500Y-132284000D02*
X58275500Y-132252000D01*
X58243500Y-133490500D02*
X58243500Y-132252000D01*
X58243500Y-132252000D02*
X58243500Y-130505500D01*
D35*
X66434000Y-103296000D02*
X66434000Y-99836000D01*
X66434000Y-99836000D02*
X66784000Y-99486000D01*
X71356000Y-83992000D02*
X71356000Y-80594000D01*
X71356000Y-80594000D02*
X71514000Y-80436000D01*
X71864000Y-92120000D02*
X71864000Y-88914000D01*
X71864000Y-88914000D02*
X71514000Y-88564000D01*
D39*
X76578500Y-70778500D02*
X76578500Y-68180500D01*
X76600000Y-70800000D02*
X76578500Y-70778500D01*
X75054500Y-66656500D02*
X74245500Y-66656500D01*
D36*
X73420000Y-43161500D02*
X73737500Y-43161500D01*
D35*
X73737500Y-43161500D02*
X75706000Y-41193000D01*
X75706000Y-41193000D02*
X77103000Y-41193000D01*
X77103000Y-41193000D02*
X77928500Y-42018500D01*
X77928500Y-42018500D02*
X77928500Y-48813000D01*
X77928500Y-48813000D02*
X75960000Y-50781500D01*
X75960000Y-50781500D02*
X75960000Y-53067500D01*
X75960000Y-53067500D02*
X81103500Y-58211000D01*
X81103500Y-58211000D02*
X81103500Y-67228000D01*
X81103500Y-67228000D02*
X80151000Y-68180500D01*
X80151000Y-68180500D02*
X76578500Y-68180500D01*
X76578500Y-68180500D02*
X75054500Y-66656500D01*
D39*
X67324000Y-65420000D02*
X73009000Y-65420000D01*
X73009000Y-65420000D02*
X74245500Y-66656500D01*
D35*
X112536000Y-137840000D02*
X117108000Y-137840000D01*
X107456000Y-137840000D02*
X112536000Y-137840000D01*
X107456000Y-140380000D02*
X112536000Y-140380000D01*
X117108000Y-140380000D02*
X112536000Y-140380000D01*
D39*
X104789000Y-89580000D02*
X99836000Y-89580000D01*
X106059000Y-88310000D02*
X104789000Y-89580000D01*
X104852500Y-87040000D02*
X99836000Y-87040000D01*
X106122500Y-85770000D02*
X104852500Y-87040000D01*
X104789000Y-92120000D02*
X99836000Y-92120000D01*
X106059000Y-90850000D02*
X104789000Y-92120000D01*
D35*
X129427000Y-114940000D02*
X117148000Y-114940000D01*
X117148000Y-114940000D02*
X117108000Y-114980000D01*
X107456000Y-114980000D02*
X112536000Y-114980000D01*
X112536000Y-114980000D02*
X117108000Y-114980000D01*
X129427000Y-117440000D02*
X117188000Y-117440000D01*
X117188000Y-117440000D02*
X117108000Y-117520000D01*
X117108000Y-117520000D02*
X112536000Y-117520000D01*
X112536000Y-117520000D02*
X107456000Y-117520000D01*
D38*
X70604000Y-62170000D02*
X71134000Y-61640000D01*
X70604000Y-62170000D02*
X67324000Y-62170000D01*
X70970000Y-62820000D02*
X72150000Y-61640000D01*
X70970000Y-62820000D02*
X67324000Y-62820000D01*
X71590000Y-63470000D02*
X72912000Y-62148000D01*
X72912000Y-62148000D02*
X72912000Y-60878000D01*
X67324000Y-63470000D02*
X71590000Y-63470000D01*
D34*
X87000000Y-78000000D02*
X88000000Y-78000000D01*
X88000000Y-78000000D02*
X89000000Y-79000000D01*
X81000000Y-98000000D02*
X82564000Y-99564000D01*
X73000000Y-98000000D02*
X81000000Y-98000000D01*
X73000000Y-94000000D02*
X73000000Y-95000000D01*
X74000000Y-93000000D02*
X73000000Y-94000000D01*
X74000000Y-88000000D02*
X74000000Y-93000000D01*
X80000000Y-82000000D02*
X74000000Y-88000000D01*
X88000000Y-82000000D02*
X80000000Y-82000000D01*
X89000000Y-81000000D02*
X88000000Y-82000000D01*
X82564000Y-99564000D02*
X82564000Y-99740000D01*
X87000000Y-74000000D02*
X87000000Y-78000000D01*
D39*
X76468000Y-63608500D02*
X75325000Y-64751500D01*
D36*
X75325000Y-64751500D02*
X75054500Y-64751500D01*
D39*
X67324000Y-64770000D02*
X75036000Y-64770000D01*
D36*
X75036000Y-64770000D02*
X75054500Y-64751500D01*
D35*
X115076000Y-87357500D02*
X107773500Y-87357500D01*
D36*
X107773500Y-87357500D02*
X107456000Y-87040000D01*
X115330000Y-87357500D02*
X115076000Y-87357500D01*
X115076000Y-87357500D02*
X112853500Y-87357500D01*
X112853500Y-87357500D02*
X112536000Y-87040000D01*
D35*
X116790500Y-87357500D02*
X115330000Y-87357500D01*
D36*
X115330000Y-87357500D02*
X115203000Y-87357500D01*
D35*
X99709000Y-47670000D02*
X102884000Y-50845000D01*
X102884000Y-50845000D02*
X102884000Y-63227500D01*
X102884000Y-63227500D02*
X109996000Y-70339500D01*
X109996000Y-70339500D02*
X109996000Y-77705500D01*
X109996000Y-77705500D02*
X115139500Y-82849000D01*
X115139500Y-82849000D02*
X115139500Y-87294000D01*
D36*
X115139500Y-87294000D02*
X115203000Y-87357500D01*
D35*
X99709000Y-47670000D02*
X96280000Y-47670000D01*
D36*
X116790500Y-87357500D02*
X117108000Y-87040000D01*
D35*
X112536000Y-94660000D02*
X117108000Y-94660000D01*
D39*
X161050000Y-47670000D02*
X166270000Y-47670000D01*
X120400000Y-97200000D02*
X117860000Y-94660000D01*
X123400000Y-97200000D02*
X120400000Y-97200000D01*
X127000000Y-93600000D02*
X123400000Y-97200000D01*
X135400000Y-93600000D02*
X127000000Y-93600000D01*
X155000000Y-74000000D02*
X135400000Y-93600000D01*
X165000000Y-74000000D02*
X155000000Y-74000000D01*
X166600000Y-72400000D02*
X165000000Y-74000000D01*
X166600000Y-48000000D02*
X166600000Y-72400000D01*
X166270000Y-47670000D02*
X166600000Y-48000000D01*
X117860000Y-94660000D02*
X117108000Y-94660000D01*
D36*
X161050000Y-47670000D02*
X161812000Y-47670000D01*
D35*
X112536000Y-94660000D02*
X107456000Y-94660000D01*
D39*
X109000000Y-79400000D02*
X109000000Y-79600000D01*
X101800000Y-63800000D02*
X104200000Y-66200000D01*
X104200000Y-66200000D02*
X104600000Y-66200000D01*
X104600000Y-66200000D02*
X109000000Y-70600000D01*
X109000000Y-70600000D02*
X109000000Y-79400000D01*
X105656000Y-99000000D02*
X107456000Y-97200000D01*
X104400000Y-99000000D02*
X105656000Y-99000000D01*
X104200000Y-98800000D02*
X104400000Y-99000000D01*
X108600000Y-80000000D02*
X104000000Y-80000000D01*
X109000000Y-79600000D02*
X108600000Y-80000000D01*
D35*
X107456000Y-97200000D02*
X112536000Y-97200000D01*
X112536000Y-97200000D02*
X117108000Y-97200000D01*
D39*
X123600000Y-90800000D02*
X123600000Y-91400000D01*
X118448000Y-98400000D02*
X117108000Y-99740000D01*
X124800000Y-98400000D02*
X118448000Y-98400000D01*
X126400000Y-96800000D02*
X124800000Y-98400000D01*
X126400000Y-95600000D02*
X126400000Y-96800000D01*
X127200000Y-94800000D02*
X126400000Y-95600000D01*
X125000000Y-92800000D02*
X127200000Y-92800000D01*
X123600000Y-91400000D02*
X125000000Y-92800000D01*
X121800000Y-64000000D02*
X122400000Y-64600000D01*
X122400000Y-64600000D02*
X122400000Y-66000000D01*
X121000000Y-67600000D02*
X121000000Y-75000000D01*
X121800000Y-76800000D02*
X119800000Y-78800000D01*
X119800000Y-82000000D02*
X120400000Y-82600000D01*
X119800000Y-78800000D02*
X119800000Y-82000000D01*
X123600000Y-84200000D02*
X123600000Y-90800000D01*
X123400000Y-84000000D02*
X123600000Y-84200000D01*
D35*
X117108000Y-99740000D02*
X112536000Y-99740000D01*
X107456000Y-99740000D02*
X112536000Y-99740000D01*
D39*
X126800000Y-83400000D02*
X126800000Y-83200000D01*
X127182400Y-82817600D02*
X130003200Y-82817600D01*
X126800000Y-83200000D02*
X127182400Y-82817600D01*
X130003200Y-82817600D02*
X133200000Y-82800000D01*
X137800000Y-46790000D02*
X139460000Y-45130000D01*
X137800000Y-54000000D02*
X137800000Y-46790000D01*
X132200000Y-59600000D02*
X137800000Y-54000000D01*
X132200000Y-72200000D02*
X132200000Y-59600000D01*
X132600000Y-72600000D02*
X132200000Y-72200000D01*
X134400000Y-72600000D02*
X132600000Y-72600000D01*
X136200000Y-74400000D02*
X134400000Y-72600000D01*
X136200000Y-77200000D02*
X136200000Y-74400000D01*
X137600000Y-78600000D02*
X136200000Y-77200000D01*
X133200000Y-82800000D02*
X136600000Y-82800000D01*
X126800000Y-90400000D02*
X126800000Y-83400000D01*
X126400000Y-90800000D02*
X126800000Y-90400000D01*
D35*
X117108000Y-102280000D02*
X112536000Y-102280000D01*
X107456000Y-102280000D02*
X112536000Y-102280000D01*
D39*
X161050000Y-45130000D02*
X164930000Y-45130000D01*
X132600000Y-109000000D02*
X120200000Y-109000000D01*
X134400000Y-107200000D02*
X132600000Y-109000000D01*
X134400000Y-95600000D02*
X134400000Y-107200000D01*
X155200000Y-74800000D02*
X134400000Y-95600000D01*
X165200000Y-74800000D02*
X155200000Y-74800000D01*
X167400000Y-72600000D02*
X165200000Y-74800000D01*
X167400000Y-47600000D02*
X167400000Y-72600000D01*
X164930000Y-45130000D02*
X167400000Y-47600000D01*
D35*
X107456000Y-104820000D02*
X112536000Y-104820000D01*
X112536000Y-104820000D02*
X117108000Y-104820000D01*
X117108000Y-109900000D02*
X112536000Y-109900000D01*
X107456000Y-109900000D02*
X112536000Y-109900000D01*
X107456000Y-112440000D02*
X112536000Y-112440000D01*
X117108000Y-112440000D02*
X112536000Y-112440000D01*
D39*
X78246000Y-104820000D02*
X80151000Y-104820000D01*
X96026000Y-106090000D02*
X97296000Y-104820000D01*
X81421000Y-106090000D02*
X96026000Y-106090000D01*
X80151000Y-104820000D02*
X81421000Y-106090000D01*
X78246000Y-102280000D02*
X80214500Y-102280000D01*
X96026000Y-103550000D02*
X97296000Y-102280000D01*
X81484500Y-103550000D02*
X96026000Y-103550000D01*
X80214500Y-102280000D02*
X81484500Y-103550000D01*
X97296000Y-99740000D02*
X94565500Y-99740000D01*
X79516000Y-101010000D02*
X78246000Y-99740000D01*
X93295500Y-101010000D02*
X79516000Y-101010000D01*
X94565500Y-99740000D02*
X93295500Y-101010000D01*
D38*
X99836000Y-120060000D02*
X105170000Y-120060000D01*
D39*
X120156000Y-118790000D02*
X121426000Y-120060000D01*
X106440000Y-118790000D02*
X120156000Y-118790000D01*
D38*
X105170000Y-120060000D02*
X106440000Y-118790000D01*
X99836000Y-122600000D02*
X105106500Y-122600000D01*
D39*
X120156000Y-121330000D02*
X121426000Y-122600000D01*
X106376500Y-121330000D02*
X120156000Y-121330000D01*
D38*
X105106500Y-122600000D02*
X106376500Y-121330000D01*
D39*
X99836000Y-125140000D02*
X101550500Y-125140000D01*
X120156000Y-123870000D02*
X121426000Y-125140000D01*
X102820500Y-123870000D02*
X120156000Y-123870000D01*
X101550500Y-125140000D02*
X102820500Y-123870000D01*
X94756000Y-135300000D02*
X94756000Y-136760500D01*
X78500000Y-126029000D02*
X81103500Y-126029000D01*
X94946500Y-127680000D02*
X97296000Y-127680000D01*
X93676500Y-126410000D02*
X94946500Y-127680000D01*
X81484500Y-126410000D02*
X93676500Y-126410000D01*
X81103500Y-126029000D02*
X81484500Y-126410000D01*
D36*
X97296000Y-127680000D02*
X97613500Y-127680000D01*
D39*
X78500000Y-123489000D02*
X81484500Y-123489000D01*
X96026000Y-123870000D02*
X97296000Y-125140000D01*
X81865500Y-123870000D02*
X96026000Y-123870000D01*
X81484500Y-123489000D02*
X81865500Y-123870000D01*
D36*
X97296000Y-125140000D02*
X97296000Y-125203500D01*
D39*
X78500000Y-120949000D02*
X81421000Y-120949000D01*
X96026000Y-121330000D02*
X97296000Y-122600000D01*
X81802000Y-121330000D02*
X96026000Y-121330000D01*
X81421000Y-120949000D02*
X81802000Y-121330000D01*
X78500000Y-118409000D02*
X81294000Y-118409000D01*
X96026000Y-118790000D02*
X97296000Y-120060000D01*
X81675000Y-118790000D02*
X96026000Y-118790000D01*
X81294000Y-118409000D02*
X81675000Y-118790000D01*
X99836000Y-99740000D02*
X105170000Y-99740000D01*
X120156000Y-101010000D02*
X121426000Y-99740000D01*
X106440000Y-101010000D02*
X120156000Y-101010000D01*
X105170000Y-99740000D02*
X106440000Y-101010000D01*
D38*
X67864000Y-92120000D02*
X67864000Y-92864000D01*
X67864000Y-92864000D02*
X71700000Y-96700000D01*
X71700000Y-96700000D02*
X80600000Y-96700000D01*
X80600000Y-96700000D02*
X81400000Y-95900000D01*
X81400000Y-95900000D02*
X93300000Y-95900000D01*
X93300000Y-95900000D02*
X93500000Y-96100000D01*
X93500000Y-96100000D02*
X93500000Y-98000000D01*
X93500000Y-98000000D02*
X94000000Y-98500000D01*
X94000000Y-98500000D02*
X101700000Y-98500000D01*
X101700000Y-98500000D02*
X102200000Y-99000000D01*
X102600000Y-101200000D02*
X102700000Y-101300000D01*
X102700000Y-101300000D02*
X102700000Y-102280000D01*
D39*
X99836000Y-102280000D02*
X102700000Y-102280000D01*
X102700000Y-102280000D02*
X105170000Y-102280000D01*
X120156000Y-103550000D02*
X121426000Y-102280000D01*
X106440000Y-103550000D02*
X120156000Y-103550000D01*
X105170000Y-102280000D02*
X106440000Y-103550000D01*
D38*
X67356000Y-83992000D02*
X66408000Y-83992000D01*
X66408000Y-83992000D02*
X65400000Y-85000000D01*
X65400000Y-85000000D02*
X65400000Y-93000000D01*
X65400000Y-93000000D02*
X71700000Y-99300000D01*
X71700000Y-99300000D02*
X71700000Y-105800000D01*
X71700000Y-105800000D02*
X73600000Y-107700000D01*
X73600000Y-107700000D02*
X80400000Y-107700000D01*
X80400000Y-107700000D02*
X81300000Y-108600000D01*
X81300000Y-108600000D02*
X96800000Y-108600000D01*
X96800000Y-108600000D02*
X99836000Y-105564000D01*
X99836000Y-105564000D02*
X99836000Y-104820000D01*
D39*
X99836000Y-104820000D02*
X104916000Y-104820000D01*
X120156000Y-106090000D02*
X121426000Y-104820000D01*
X106186000Y-106090000D02*
X120156000Y-106090000D01*
X104916000Y-104820000D02*
X106186000Y-106090000D01*
X78246000Y-94660000D02*
X80341500Y-94660000D01*
X96216500Y-94660000D02*
X97296000Y-94660000D01*
X94946500Y-93390000D02*
X96216500Y-94660000D01*
X81611500Y-93390000D02*
X94946500Y-93390000D01*
X80341500Y-94660000D02*
X81611500Y-93390000D01*
X78246000Y-92120000D02*
X80087500Y-92120000D01*
X96026000Y-90850000D02*
X97296000Y-92120000D01*
X81357500Y-90850000D02*
X96026000Y-90850000D01*
X80087500Y-92120000D02*
X81357500Y-90850000D01*
X78246000Y-89580000D02*
X80214500Y-89580000D01*
X96026000Y-88310000D02*
X97296000Y-89580000D01*
X81484500Y-88310000D02*
X96026000Y-88310000D01*
X80214500Y-89580000D02*
X81484500Y-88310000D01*
X78246000Y-87040000D02*
X80214500Y-87040000D01*
X96026000Y-85770000D02*
X97296000Y-87040000D01*
X81484500Y-85770000D02*
X96026000Y-85770000D01*
X80214500Y-87040000D02*
X81484500Y-85770000D01*
X104852500Y-94660000D02*
X99836000Y-94660000D01*
X106122500Y-93390000D02*
X104852500Y-94660000D01*
D35*
X158764000Y-67736000D02*
X158764000Y-62656000D01*
X158764000Y-62656000D02*
X161050000Y-60370000D01*
X156224000Y-67736000D02*
X156224000Y-62211500D01*
X156224000Y-62211500D02*
X160605500Y-57830000D01*
D36*
X160605500Y-57830000D02*
X161050000Y-57830000D01*
D35*
X153684000Y-67736000D02*
X153684000Y-62656000D01*
X153684000Y-62656000D02*
X161050000Y-55290000D01*
X138952000Y-67736000D02*
X138952000Y-65132500D01*
X137682000Y-62148000D02*
X139460000Y-60370000D01*
X137682000Y-63862500D02*
X137682000Y-62148000D01*
X138952000Y-65132500D02*
X137682000Y-63862500D01*
X136412000Y-67736000D02*
X136412000Y-60878000D01*
X136412000Y-60878000D02*
X139460000Y-57830000D01*
X133872000Y-67736000D02*
X133872000Y-60878000D01*
X133872000Y-60878000D02*
X139460000Y-55290000D01*
X117616000Y-68244000D02*
X117616000Y-65640500D01*
X116282500Y-61957500D02*
X117870000Y-60370000D01*
X116282500Y-64307000D02*
X116282500Y-61957500D01*
X117616000Y-65640500D02*
X116282500Y-64307000D01*
X115076000Y-68244000D02*
X115076000Y-60624000D01*
X115076000Y-60624000D02*
X117870000Y-57830000D01*
X112536000Y-68244000D02*
X112536000Y-60624000D01*
X112536000Y-60624000D02*
X117870000Y-55290000D01*
X95772000Y-67736000D02*
X95772000Y-65132500D01*
X94629000Y-62021000D02*
X96280000Y-60370000D01*
X94629000Y-63989500D02*
X94629000Y-62021000D01*
X95772000Y-65132500D02*
X94629000Y-63989500D01*
X93232000Y-67736000D02*
X93232000Y-60878000D01*
X93232000Y-60878000D02*
X96280000Y-57830000D01*
X90692000Y-67736000D02*
X90692000Y-60878000D01*
X90692000Y-60878000D02*
X96280000Y-55290000D01*
X164352000Y-67736000D02*
X164352000Y-66212000D01*
X164352000Y-66212000D02*
X161050000Y-62910000D01*
D36*
X144540000Y-67736000D02*
X144286000Y-67736000D01*
D35*
X144286000Y-67736000D02*
X139460000Y-62910000D01*
X123204000Y-68244000D02*
X117870000Y-62910000D01*
D36*
X101360000Y-67736000D02*
X101106000Y-67736000D01*
D35*
X101106000Y-67736000D02*
X96280000Y-62910000D01*
X129046000Y-49956000D02*
X126760000Y-47670000D01*
X129046000Y-65450000D02*
X129046000Y-49956000D01*
X129808000Y-66212000D02*
X129046000Y-65450000D01*
X127348000Y-77642000D02*
X127348000Y-65593500D01*
X106440000Y-46400000D02*
X105170000Y-47670000D01*
X118759000Y-46400000D02*
X106440000Y-46400000D01*
X121807000Y-49448000D02*
X118759000Y-46400000D01*
X121807000Y-60052500D02*
X121807000Y-49448000D01*
X127348000Y-65593500D02*
X121807000Y-60052500D01*
D37*
X61824900Y-126620500D02*
X60994000Y-126620500D01*
X60688500Y-126315000D02*
X60688500Y-124060500D01*
X60994000Y-126620500D02*
X60688500Y-126315000D01*
X64822100Y-128620500D02*
X65661000Y-128620500D01*
X66403500Y-129363000D02*
X66403500Y-132315500D01*
X65661000Y-128620500D02*
X66403500Y-129363000D01*
M02*
