G04 #@! TF.FileFunction,Legend,Top*
%FSLAX46Y46*%
G04 Gerber Fmt 4.6, Leading zero omitted, Abs format (unit mm)*
G04 Created by KiCad (PCBNEW 4.0.7-e2-6376~61~ubuntu18.04.1) date Fri Jan 25 11:22:19 2019*
%MOMM*%
%LPD*%
G01*
G04 APERTURE LIST*
%ADD10C,0.100000*%
%ADD11C,0.120000*%
%ADD12C,0.150000*%
G04 APERTURE END LIST*
D10*
D11*
X151220000Y-60920000D02*
X156040000Y-60920000D01*
X151220000Y-63540000D02*
X156040000Y-63540000D01*
X151220000Y-60920000D02*
X151220000Y-61234000D01*
X151220000Y-63226000D02*
X151220000Y-63540000D01*
X156040000Y-60920000D02*
X156040000Y-61234000D01*
X156040000Y-63226000D02*
X156040000Y-63540000D01*
X154900000Y-104050000D02*
X154900000Y-99230000D01*
X157520000Y-104050000D02*
X157520000Y-99230000D01*
X154900000Y-104050000D02*
X155214000Y-104050000D01*
X157206000Y-104050000D02*
X157520000Y-104050000D01*
X154900000Y-99230000D02*
X155214000Y-99230000D01*
X157206000Y-99230000D02*
X157520000Y-99230000D01*
X157520000Y-88990000D02*
X157520000Y-93810000D01*
X154900000Y-88990000D02*
X154900000Y-93810000D01*
X157520000Y-88990000D02*
X157206000Y-88990000D01*
X155214000Y-88990000D02*
X154900000Y-88990000D01*
X157520000Y-93810000D02*
X157206000Y-93810000D01*
X155214000Y-93810000D02*
X154900000Y-93810000D01*
X147280000Y-98970000D02*
X147280000Y-94150000D01*
X149900000Y-98970000D02*
X149900000Y-94150000D01*
X147280000Y-98970000D02*
X147594000Y-98970000D01*
X149586000Y-98970000D02*
X149900000Y-98970000D01*
X147280000Y-94150000D02*
X147594000Y-94150000D01*
X149586000Y-94150000D02*
X149900000Y-94150000D01*
X148630000Y-80100000D02*
X148630000Y-84920000D01*
X146010000Y-80100000D02*
X146010000Y-84920000D01*
X148630000Y-80100000D02*
X148316000Y-80100000D01*
X146324000Y-80100000D02*
X146010000Y-80100000D01*
X148630000Y-84920000D02*
X148316000Y-84920000D01*
X146324000Y-84920000D02*
X146010000Y-84920000D01*
X151220000Y-71080000D02*
X156040000Y-71080000D01*
X151220000Y-73700000D02*
X156040000Y-73700000D01*
X151220000Y-71080000D02*
X151220000Y-71394000D01*
X151220000Y-73386000D02*
X151220000Y-73700000D01*
X156040000Y-71080000D02*
X156040000Y-71394000D01*
X156040000Y-73386000D02*
X156040000Y-73700000D01*
X125670000Y-85150000D02*
X128330000Y-85150000D01*
X125670000Y-80010000D02*
X125670000Y-85150000D01*
X128330000Y-80010000D02*
X128330000Y-85150000D01*
X125670000Y-80010000D02*
X128330000Y-80010000D01*
X125670000Y-78740000D02*
X125670000Y-77410000D01*
X125670000Y-77410000D02*
X127000000Y-77410000D01*
X165040000Y-92770000D02*
X167700000Y-92770000D01*
X165040000Y-82550000D02*
X165040000Y-92770000D01*
X167700000Y-82550000D02*
X167700000Y-92770000D01*
X165040000Y-82550000D02*
X167700000Y-82550000D01*
X165040000Y-81280000D02*
X165040000Y-79950000D01*
X165040000Y-79950000D02*
X166370000Y-79950000D01*
X151730000Y-67600000D02*
X151730000Y-67270000D01*
X151730000Y-67270000D02*
X158150000Y-67270000D01*
X158150000Y-67270000D02*
X158150000Y-67600000D01*
X151730000Y-69560000D02*
X151730000Y-69890000D01*
X151730000Y-69890000D02*
X158150000Y-69890000D01*
X158150000Y-69890000D02*
X158150000Y-69560000D01*
X161819000Y-62540000D02*
X167340000Y-62540000D01*
X161819000Y-72160000D02*
X167340000Y-72160000D01*
X161819000Y-62540000D02*
X161819000Y-72160000D01*
X167340000Y-62540000D02*
X167340000Y-72160000D01*
X167340000Y-63790000D02*
X172340000Y-63790000D01*
X167340000Y-70910000D02*
X172340000Y-70910000D01*
X167340000Y-63790000D02*
X167340000Y-70910000D01*
X172340000Y-63790000D02*
X172340000Y-70910000D01*
X172340000Y-64790000D02*
X179340000Y-64790000D01*
X172340000Y-69910000D02*
X179340000Y-69910000D01*
X172340000Y-64790000D02*
X172340000Y-69910000D01*
X179340000Y-64790000D02*
X179340000Y-69910000D01*
D12*
X139319000Y-62484000D02*
X142748000Y-62484000D01*
X139319000Y-72136000D02*
X142748000Y-72136000D01*
X138176000Y-61976000D02*
X138176000Y-72644000D01*
X139192000Y-65532000D02*
X137922000Y-65532000D01*
X139192000Y-69088000D02*
X137922000Y-69088000D01*
X139319000Y-72644000D02*
X139319000Y-61976000D01*
X142748000Y-61976000D02*
X142748000Y-72644000D01*
X137922000Y-72644000D02*
X142748000Y-72644000D01*
X137922000Y-61976000D02*
X142748000Y-61976000D01*
X137922000Y-61976000D02*
X137922000Y-72644000D01*
X139319000Y-96774000D02*
X142748000Y-96774000D01*
X139319000Y-106426000D02*
X142748000Y-106426000D01*
X138176000Y-96266000D02*
X138176000Y-106934000D01*
X139192000Y-99822000D02*
X137922000Y-99822000D01*
X139192000Y-103378000D02*
X137922000Y-103378000D01*
X139319000Y-106934000D02*
X139319000Y-96266000D01*
X142748000Y-96266000D02*
X142748000Y-106934000D01*
X137922000Y-106934000D02*
X142748000Y-106934000D01*
X137922000Y-96266000D02*
X142748000Y-96266000D01*
X137922000Y-96266000D02*
X137922000Y-106934000D01*
X139319000Y-81534000D02*
X142748000Y-81534000D01*
X139319000Y-91186000D02*
X142748000Y-91186000D01*
X138176000Y-81026000D02*
X138176000Y-91694000D01*
X139192000Y-84582000D02*
X137922000Y-84582000D01*
X139192000Y-88138000D02*
X137922000Y-88138000D01*
X139319000Y-91694000D02*
X139319000Y-81026000D01*
X142748000Y-81026000D02*
X142748000Y-91694000D01*
X137922000Y-91694000D02*
X142748000Y-91694000D01*
X137922000Y-81026000D02*
X142748000Y-81026000D01*
X137922000Y-81026000D02*
X137922000Y-91694000D01*
X153463334Y-60027143D02*
X153415715Y-60074762D01*
X153272858Y-60122381D01*
X153177620Y-60122381D01*
X153034762Y-60074762D01*
X152939524Y-59979524D01*
X152891905Y-59884286D01*
X152844286Y-59693810D01*
X152844286Y-59550952D01*
X152891905Y-59360476D01*
X152939524Y-59265238D01*
X153034762Y-59170000D01*
X153177620Y-59122381D01*
X153272858Y-59122381D01*
X153415715Y-59170000D01*
X153463334Y-59217619D01*
X154415715Y-60122381D02*
X153844286Y-60122381D01*
X154130000Y-60122381D02*
X154130000Y-59122381D01*
X154034762Y-59265238D01*
X153939524Y-59360476D01*
X153844286Y-59408095D01*
X154007143Y-101806666D02*
X154054762Y-101854285D01*
X154102381Y-101997142D01*
X154102381Y-102092380D01*
X154054762Y-102235238D01*
X153959524Y-102330476D01*
X153864286Y-102378095D01*
X153673810Y-102425714D01*
X153530952Y-102425714D01*
X153340476Y-102378095D01*
X153245238Y-102330476D01*
X153150000Y-102235238D01*
X153102381Y-102092380D01*
X153102381Y-101997142D01*
X153150000Y-101854285D01*
X153197619Y-101806666D01*
X153197619Y-101425714D02*
X153150000Y-101378095D01*
X153102381Y-101282857D01*
X153102381Y-101044761D01*
X153150000Y-100949523D01*
X153197619Y-100901904D01*
X153292857Y-100854285D01*
X153388095Y-100854285D01*
X153530952Y-100901904D01*
X154102381Y-101473333D01*
X154102381Y-100854285D01*
X159127143Y-91566666D02*
X159174762Y-91614285D01*
X159222381Y-91757142D01*
X159222381Y-91852380D01*
X159174762Y-91995238D01*
X159079524Y-92090476D01*
X158984286Y-92138095D01*
X158793810Y-92185714D01*
X158650952Y-92185714D01*
X158460476Y-92138095D01*
X158365238Y-92090476D01*
X158270000Y-91995238D01*
X158222381Y-91852380D01*
X158222381Y-91757142D01*
X158270000Y-91614285D01*
X158317619Y-91566666D01*
X158222381Y-91233333D02*
X158222381Y-90614285D01*
X158603333Y-90947619D01*
X158603333Y-90804761D01*
X158650952Y-90709523D01*
X158698571Y-90661904D01*
X158793810Y-90614285D01*
X159031905Y-90614285D01*
X159127143Y-90661904D01*
X159174762Y-90709523D01*
X159222381Y-90804761D01*
X159222381Y-91090476D01*
X159174762Y-91185714D01*
X159127143Y-91233333D01*
X146387143Y-96726666D02*
X146434762Y-96774285D01*
X146482381Y-96917142D01*
X146482381Y-97012380D01*
X146434762Y-97155238D01*
X146339524Y-97250476D01*
X146244286Y-97298095D01*
X146053810Y-97345714D01*
X145910952Y-97345714D01*
X145720476Y-97298095D01*
X145625238Y-97250476D01*
X145530000Y-97155238D01*
X145482381Y-97012380D01*
X145482381Y-96917142D01*
X145530000Y-96774285D01*
X145577619Y-96726666D01*
X145815714Y-95869523D02*
X146482381Y-95869523D01*
X145434762Y-96107619D02*
X146149048Y-96345714D01*
X146149048Y-95726666D01*
X150237143Y-82676666D02*
X150284762Y-82724285D01*
X150332381Y-82867142D01*
X150332381Y-82962380D01*
X150284762Y-83105238D01*
X150189524Y-83200476D01*
X150094286Y-83248095D01*
X149903810Y-83295714D01*
X149760952Y-83295714D01*
X149570476Y-83248095D01*
X149475238Y-83200476D01*
X149380000Y-83105238D01*
X149332381Y-82962380D01*
X149332381Y-82867142D01*
X149380000Y-82724285D01*
X149427619Y-82676666D01*
X149332381Y-81771904D02*
X149332381Y-82248095D01*
X149808571Y-82295714D01*
X149760952Y-82248095D01*
X149713333Y-82152857D01*
X149713333Y-81914761D01*
X149760952Y-81819523D01*
X149808571Y-81771904D01*
X149903810Y-81724285D01*
X150141905Y-81724285D01*
X150237143Y-81771904D01*
X150284762Y-81819523D01*
X150332381Y-81914761D01*
X150332381Y-82152857D01*
X150284762Y-82248095D01*
X150237143Y-82295714D01*
X153463334Y-70187143D02*
X153415715Y-70234762D01*
X153272858Y-70282381D01*
X153177620Y-70282381D01*
X153034762Y-70234762D01*
X152939524Y-70139524D01*
X152891905Y-70044286D01*
X152844286Y-69853810D01*
X152844286Y-69710952D01*
X152891905Y-69520476D01*
X152939524Y-69425238D01*
X153034762Y-69330000D01*
X153177620Y-69282381D01*
X153272858Y-69282381D01*
X153415715Y-69330000D01*
X153463334Y-69377619D01*
X154320477Y-69282381D02*
X154130000Y-69282381D01*
X154034762Y-69330000D01*
X153987143Y-69377619D01*
X153891905Y-69520476D01*
X153844286Y-69710952D01*
X153844286Y-70091905D01*
X153891905Y-70187143D01*
X153939524Y-70234762D01*
X154034762Y-70282381D01*
X154225239Y-70282381D01*
X154320477Y-70234762D01*
X154368096Y-70187143D01*
X154415715Y-70091905D01*
X154415715Y-69853810D01*
X154368096Y-69758571D01*
X154320477Y-69710952D01*
X154225239Y-69663333D01*
X154034762Y-69663333D01*
X153939524Y-69710952D01*
X153891905Y-69758571D01*
X153844286Y-69853810D01*
X126666667Y-75862381D02*
X126666667Y-76576667D01*
X126619047Y-76719524D01*
X126523809Y-76814762D01*
X126380952Y-76862381D01*
X126285714Y-76862381D01*
X127666667Y-76862381D02*
X127095238Y-76862381D01*
X127380952Y-76862381D02*
X127380952Y-75862381D01*
X127285714Y-76005238D01*
X127190476Y-76100476D01*
X127095238Y-76148095D01*
X166036667Y-78402381D02*
X166036667Y-79116667D01*
X165989047Y-79259524D01*
X165893809Y-79354762D01*
X165750952Y-79402381D01*
X165655714Y-79402381D01*
X166465238Y-78497619D02*
X166512857Y-78450000D01*
X166608095Y-78402381D01*
X166846191Y-78402381D01*
X166941429Y-78450000D01*
X166989048Y-78497619D01*
X167036667Y-78592857D01*
X167036667Y-78688095D01*
X166989048Y-78830952D01*
X166417619Y-79402381D01*
X167036667Y-79402381D01*
X154773334Y-66722381D02*
X154440000Y-66246190D01*
X154201905Y-66722381D02*
X154201905Y-65722381D01*
X154582858Y-65722381D01*
X154678096Y-65770000D01*
X154725715Y-65817619D01*
X154773334Y-65912857D01*
X154773334Y-66055714D01*
X154725715Y-66150952D01*
X154678096Y-66198571D01*
X154582858Y-66246190D01*
X154201905Y-66246190D01*
X155725715Y-66722381D02*
X155154286Y-66722381D01*
X155440000Y-66722381D02*
X155440000Y-65722381D01*
X155344762Y-65865238D01*
X155249524Y-65960476D01*
X155154286Y-66008095D01*
X163234762Y-61802381D02*
X162901428Y-61326190D01*
X162663333Y-61802381D02*
X162663333Y-60802381D01*
X163044286Y-60802381D01*
X163139524Y-60850000D01*
X163187143Y-60897619D01*
X163234762Y-60992857D01*
X163234762Y-61135714D01*
X163187143Y-61230952D01*
X163139524Y-61278571D01*
X163044286Y-61326190D01*
X162663333Y-61326190D01*
X163520476Y-60802381D02*
X163853809Y-61802381D01*
X164187143Y-60802381D01*
X165044286Y-61802381D02*
X164472857Y-61802381D01*
X164758571Y-61802381D02*
X164758571Y-60802381D01*
X164663333Y-60945238D01*
X164568095Y-61040476D01*
X164472857Y-61088095D01*
X136104381Y-68071905D02*
X136913905Y-68071905D01*
X137009143Y-68024286D01*
X137056762Y-67976667D01*
X137104381Y-67881429D01*
X137104381Y-67690952D01*
X137056762Y-67595714D01*
X137009143Y-67548095D01*
X136913905Y-67500476D01*
X136104381Y-67500476D01*
X137104381Y-66500476D02*
X137104381Y-67071905D01*
X137104381Y-66786191D02*
X136104381Y-66786191D01*
X136247238Y-66881429D01*
X136342476Y-66976667D01*
X136390095Y-67071905D01*
X136104381Y-102361905D02*
X136913905Y-102361905D01*
X137009143Y-102314286D01*
X137056762Y-102266667D01*
X137104381Y-102171429D01*
X137104381Y-101980952D01*
X137056762Y-101885714D01*
X137009143Y-101838095D01*
X136913905Y-101790476D01*
X136104381Y-101790476D01*
X136199619Y-101361905D02*
X136152000Y-101314286D01*
X136104381Y-101219048D01*
X136104381Y-100980952D01*
X136152000Y-100885714D01*
X136199619Y-100838095D01*
X136294857Y-100790476D01*
X136390095Y-100790476D01*
X136532952Y-100838095D01*
X137104381Y-101409524D01*
X137104381Y-100790476D01*
X136104381Y-87121905D02*
X136913905Y-87121905D01*
X137009143Y-87074286D01*
X137056762Y-87026667D01*
X137104381Y-86931429D01*
X137104381Y-86740952D01*
X137056762Y-86645714D01*
X137009143Y-86598095D01*
X136913905Y-86550476D01*
X136104381Y-86550476D01*
X136104381Y-86169524D02*
X136104381Y-85550476D01*
X136485333Y-85883810D01*
X136485333Y-85740952D01*
X136532952Y-85645714D01*
X136580571Y-85598095D01*
X136675810Y-85550476D01*
X136913905Y-85550476D01*
X137009143Y-85598095D01*
X137056762Y-85645714D01*
X137104381Y-85740952D01*
X137104381Y-86026667D01*
X137056762Y-86121905D01*
X137009143Y-86169524D01*
X122491667Y-57577381D02*
X122158333Y-57101190D01*
X121920238Y-57577381D02*
X121920238Y-56577381D01*
X122301191Y-56577381D01*
X122396429Y-56625000D01*
X122444048Y-56672619D01*
X122491667Y-56767857D01*
X122491667Y-56910714D01*
X122444048Y-57005952D01*
X122396429Y-57053571D01*
X122301191Y-57101190D01*
X121920238Y-57101190D01*
X122920238Y-57053571D02*
X123253572Y-57053571D01*
X123396429Y-57577381D02*
X122920238Y-57577381D01*
X122920238Y-56577381D01*
X123396429Y-56577381D01*
X124158334Y-57053571D02*
X123825000Y-57053571D01*
X123825000Y-57577381D02*
X123825000Y-56577381D01*
X124301191Y-56577381D01*
X124825000Y-56577381D02*
X124825000Y-56815476D01*
X124586905Y-56720238D02*
X124825000Y-56815476D01*
X125063096Y-56720238D01*
X124682143Y-57005952D02*
X124825000Y-56815476D01*
X124967858Y-57005952D01*
X125586905Y-56577381D02*
X125586905Y-56815476D01*
X125348810Y-56720238D02*
X125586905Y-56815476D01*
X125825001Y-56720238D01*
X125444048Y-57005952D02*
X125586905Y-56815476D01*
X125729763Y-57005952D01*
X166306667Y-57577381D02*
X165973333Y-57101190D01*
X165735238Y-57577381D02*
X165735238Y-56577381D01*
X166116191Y-56577381D01*
X166211429Y-56625000D01*
X166259048Y-56672619D01*
X166306667Y-56767857D01*
X166306667Y-56910714D01*
X166259048Y-57005952D01*
X166211429Y-57053571D01*
X166116191Y-57101190D01*
X165735238Y-57101190D01*
X166735238Y-57053571D02*
X167068572Y-57053571D01*
X167211429Y-57577381D02*
X166735238Y-57577381D01*
X166735238Y-56577381D01*
X167211429Y-56577381D01*
X167973334Y-57053571D02*
X167640000Y-57053571D01*
X167640000Y-57577381D02*
X167640000Y-56577381D01*
X168116191Y-56577381D01*
X168640000Y-56577381D02*
X168640000Y-56815476D01*
X168401905Y-56720238D02*
X168640000Y-56815476D01*
X168878096Y-56720238D01*
X168497143Y-57005952D02*
X168640000Y-56815476D01*
X168782858Y-57005952D01*
X169401905Y-56577381D02*
X169401905Y-56815476D01*
X169163810Y-56720238D02*
X169401905Y-56815476D01*
X169640001Y-56720238D01*
X169259048Y-57005952D02*
X169401905Y-56815476D01*
X169544763Y-57005952D01*
X122491667Y-102027381D02*
X122158333Y-101551190D01*
X121920238Y-102027381D02*
X121920238Y-101027381D01*
X122301191Y-101027381D01*
X122396429Y-101075000D01*
X122444048Y-101122619D01*
X122491667Y-101217857D01*
X122491667Y-101360714D01*
X122444048Y-101455952D01*
X122396429Y-101503571D01*
X122301191Y-101551190D01*
X121920238Y-101551190D01*
X122920238Y-101503571D02*
X123253572Y-101503571D01*
X123396429Y-102027381D02*
X122920238Y-102027381D01*
X122920238Y-101027381D01*
X123396429Y-101027381D01*
X124158334Y-101503571D02*
X123825000Y-101503571D01*
X123825000Y-102027381D02*
X123825000Y-101027381D01*
X124301191Y-101027381D01*
X124825000Y-101027381D02*
X124825000Y-101265476D01*
X124586905Y-101170238D02*
X124825000Y-101265476D01*
X125063096Y-101170238D01*
X124682143Y-101455952D02*
X124825000Y-101265476D01*
X124967858Y-101455952D01*
X125586905Y-101027381D02*
X125586905Y-101265476D01*
X125348810Y-101170238D02*
X125586905Y-101265476D01*
X125825001Y-101170238D01*
X125444048Y-101455952D02*
X125586905Y-101265476D01*
X125729763Y-101455952D01*
X166306667Y-102027381D02*
X165973333Y-101551190D01*
X165735238Y-102027381D02*
X165735238Y-101027381D01*
X166116191Y-101027381D01*
X166211429Y-101075000D01*
X166259048Y-101122619D01*
X166306667Y-101217857D01*
X166306667Y-101360714D01*
X166259048Y-101455952D01*
X166211429Y-101503571D01*
X166116191Y-101551190D01*
X165735238Y-101551190D01*
X166735238Y-101503571D02*
X167068572Y-101503571D01*
X167211429Y-102027381D02*
X166735238Y-102027381D01*
X166735238Y-101027381D01*
X167211429Y-101027381D01*
X167973334Y-101503571D02*
X167640000Y-101503571D01*
X167640000Y-102027381D02*
X167640000Y-101027381D01*
X168116191Y-101027381D01*
X168640000Y-101027381D02*
X168640000Y-101265476D01*
X168401905Y-101170238D02*
X168640000Y-101265476D01*
X168878096Y-101170238D01*
X168497143Y-101455952D02*
X168640000Y-101265476D01*
X168782858Y-101455952D01*
X169401905Y-101027381D02*
X169401905Y-101265476D01*
X169163810Y-101170238D02*
X169401905Y-101265476D01*
X169640001Y-101170238D01*
X169259048Y-101455952D02*
X169401905Y-101265476D01*
X169544763Y-101455952D01*
M02*
