M48
;DRILL file {KiCad 4.0.7-e2-6376~61~ubuntu18.04.1} date Fri Jan 25 11:23:35 2019
;FORMAT={-:-/ absolute / metric / decimal}
FMAT,2
METRIC,TZ
T1C0.800
T2C1.000
T3C1.143
%
G90
G05
M71
T1
X147.32Y-80.01
X147.32Y-85.01
X148.59Y-94.06
X148.59Y-99.06
X151.13Y-62.23
X151.13Y-68.58
X151.13Y-72.39
X156.13Y-62.23
X156.13Y-72.39
X156.21Y-88.9
X156.21Y-93.9
X156.21Y-99.14
X156.21Y-104.14
X158.75Y-68.58
T2
X127.Y-78.74
X127.Y-81.28
X127.Y-83.82
X163.83Y-64.85
X163.83Y-67.35
X163.83Y-69.85
X166.37Y-81.28
X166.37Y-83.82
X166.37Y-86.36
X166.37Y-88.9
X166.37Y-91.44
T3
X140.97Y-64.77
X140.97Y-67.31
X140.97Y-69.85
X140.97Y-83.82
X140.97Y-86.36
X140.97Y-88.9
X140.97Y-99.06
X140.97Y-101.6
X140.97Y-104.14
T0
M30
